<?xml version='1.0' encoding='UTF-8' standalone='no'?>
<!-- Created with Fritzing (http://www.fritzing.org/) -->
<svg xmlns:svg='http://www.w3.org/2000/svg' xmlns='http://www.w3.org/2000/svg' version='1.2' baseProfile='tiny' x='0in' y='0in' width='3.88232in' height='1.93905in' viewBox='0 0 279.527 139.612' >
<g partID='94170'><g transform='translate(93.6,58.5186)' ><g transform='matrix(0,1,-1,0,0,0)'  ><g  id="breadboardbreadboard">
 <g  id="icon">
  <path  fill="#0F7391" d="M0,0l0,93.6l50.4,0L50.4,0L0,0M41.76,3.6c0,-0.795,0.646,-1.438,1.44,-1.438s1.44,0.645,1.44,1.438s-0.646,1.44,-1.44,1.44S41.76,4.395,41.76,3.6zM34.56,3.6c0,-0.795,0.645,-1.438,1.438,-1.438c0.796,0,1.44,0.645,1.44,1.438S36.796,5.04,36,5.04C35.205,5.04,34.56,4.395,34.56,3.6zM27.36,3.6c0,-0.795,0.645,-1.438,1.438,-1.438c0.797,0,1.44,0.645,1.44,1.438s-0.645,1.44,-1.44,1.44C28.005,5.04,27.36,4.395,27.36,3.6zM20.16,3.6c0,-0.795,0.646,-1.438,1.44,-1.438s1.438,0.645,1.438,1.438S22.395,5.04,21.6,5.04C20.804,5.04,20.16,4.395,20.16,3.6zM12.96,3.6c0,-0.795,0.646,-1.438,1.44,-1.438s1.438,0.645,1.438,1.438S15.195,5.04,14.4,5.04C13.604,5.04,12.96,4.395,12.96,3.6zM5.76,3.6c0,-0.795,0.646,-1.438,1.44,-1.438S8.64,2.805,8.64,3.6S7.995,5.04,7.2,5.04S5.76,4.395,5.76,3.6zM37.08,42.84c0,-0.796,0.646,-1.44,1.44,-1.44s1.438,0.646,1.438,1.44s-0.645,1.438,-1.438,1.438C37.724,44.28,37.08,43.635,37.08,42.84zM37.08,35.64c0,-0.795,0.646,-1.438,1.44,-1.438s1.438,0.645,1.438,1.438s-0.645,1.44,-1.438,1.44C37.724,37.08,37.08,36.435,37.08,35.64zM45.36,10.8c0,-0.795,0.645,-1.44,1.438,-1.44c0.797,0,1.44,0.646,1.44,1.44s-0.646,1.438,-1.44,1.438C46.005,12.24,45.36,11.595,45.36,10.8zM45.36,18c0,-0.796,0.645,-1.44,1.438,-1.44c0.797,0,1.44,0.646,1.44,1.44s-0.646,1.438,-1.44,1.438C46.005,19.44,45.36,18.795,45.36,18zM45.36,25.2c0,-0.797,0.645,-1.44,1.438,-1.44c0.797,0,1.44,0.645,1.44,1.44c0,0.795,-0.646,1.438,-1.44,1.438C46.005,26.64,45.36,25.995,45.36,25.2zM45.36,32.4c0,-0.795,0.645,-1.438,1.438,-1.438c0.797,0,1.44,0.645,1.44,1.438c0,0.796,-0.646,1.44,-1.44,1.44C46.005,33.84,45.36,33.196,45.36,32.4zM45.36,39.6c0,-0.795,0.645,-1.438,1.438,-1.438c0.797,0,1.44,0.645,1.44,1.438s-0.646,1.44,-1.44,1.44C46.005,41.04,45.36,40.395,45.36,39.6zM45.36,46.8c0,-0.795,0.645,-1.44,1.438,-1.44c0.797,0,1.44,0.646,1.44,1.44s-0.646,1.438,-1.44,1.438C46.005,48.24,45.36,47.595,45.36,46.8zM45.36,54c0,-0.796,0.645,-1.44,1.438,-1.44c0.797,0,1.44,0.646,1.44,1.44s-0.646,1.438,-1.44,1.438C46.005,55.44,45.36,54.795,45.36,54zM45.36,61.2c0,-0.797,0.645,-1.44,1.438,-1.44c0.797,0,1.44,0.645,1.44,1.44l0,0c0,0.795,-0.646,1.438,-1.44,1.438C46.005,62.64,45.36,61.995,45.36,61.2zM45.36,68.4c0,-0.795,0.645,-1.438,1.438,-1.438c0.797,0,1.44,0.645,1.44,1.438l0,0c0,0.796,-0.646,1.44,-1.44,1.44C46.005,69.84,45.36,69.196,45.36,68.4zM45.36,75.6c0,-0.795,0.645,-1.438,1.438,-1.438c0.797,0,1.44,0.645,1.44,1.438s-0.646,1.44,-1.44,1.44C46.005,77.04,45.36,76.395,45.36,75.6zM45.36,82.8c0,-0.795,0.645,-1.44,1.438,-1.44c0.797,0,1.44,0.646,1.44,1.44s-0.646,1.438,-1.44,1.438C46.005,84.24,45.36,83.595,45.36,82.8zM45.36,90c0,-0.796,0.645,-1.44,1.438,-1.44c0.797,0,1.44,0.646,1.44,1.44s-0.646,1.438,-1.44,1.438C46.005,91.44,45.36,90.795,45.36,90zM2.16,90c0,-0.796,0.646,-1.44,1.439,-1.44c0.796,-0.001,1.439,0.645,1.439,1.439c0,0,0,0,0,0.001c0,0.795,-0.645,1.438,-1.438,1.438C2.804,91.44,2.16,90.795,2.16,90zM2.16,82.8c0,-0.795,0.646,-1.44,1.439,-1.44c0.796,0,1.439,0.646,1.439,1.439L5.038,82.8c0,0.795,-0.645,1.438,-1.438,1.438C2.804,84.24,2.16,83.595,2.16,82.8zM2.16,75.6c0,-0.795,0.646,-1.439,1.439,-1.439c0.796,0,1.439,0.645,1.439,1.438L5.038,75.6c0,0.795,-0.645,1.44,-1.438,1.44C2.804,77.04,2.16,76.395,2.16,75.6zM2.16,68.4c0,-0.795,0.646,-1.438,1.439,-1.439c0.796,0,1.439,0.645,1.439,1.438c0,0.001,0,0.001,0,0.001c0,0.796,-0.645,1.44,-1.438,1.44C2.804,69.84,2.16,69.196,2.16,68.4zM2.16,61.2c0,-0.797,0.646,-1.44,1.439,-1.441c0.796,0,1.439,0.645,1.439,1.439c0,0,0,0,0,0.002c0,0.795,-0.645,1.438,-1.438,1.438C2.804,62.64,2.16,61.995,2.16,61.2zM2.16,54c0,-0.796,0.646,-1.44,1.439,-1.44c0.796,-0.001,1.439,0.645,1.439,1.439c0,0,0,0,0,0.001c0,0.795,-0.645,1.438,-1.438,1.438C2.804,55.44,2.16,54.795,2.16,54zM2.16,46.8c0,-0.795,0.646,-1.44,1.439,-1.44c0.796,0,1.439,0.646,1.439,1.439L5.038,46.8c0,0.795,-0.645,1.438,-1.438,1.438C2.804,48.24,2.16,47.595,2.16,46.8zM2.16,39.6c0,-0.795,0.646,-1.439,1.439,-1.439c0.796,0,1.439,0.645,1.439,1.438L5.038,39.6c0,0.795,-0.645,1.44,-1.438,1.44C2.804,41.04,2.16,40.395,2.16,39.6zM2.16,32.4c0,-0.795,0.646,-1.438,1.439,-1.439c0.796,0,1.439,0.645,1.439,1.438c0,0.001,0,0.001,0,0.001c0,0.796,-0.645,1.44,-1.438,1.44C2.804,33.84,2.16,33.196,2.16,32.4zM2.16,25.2c0,-0.797,0.646,-1.44,1.439,-1.441c0.796,0,1.439,0.645,1.439,1.439c0,0,0,0,0,0.002c0,0.795,-0.645,1.438,-1.438,1.438C2.804,26.64,2.16,25.995,2.16,25.2L2.16,25.2zM2.16,18c0,-0.796,0.646,-1.44,1.439,-1.44c0.796,-0.001,1.439,0.645,1.439,1.439c0,0,0,0,0,0.001c0,0.795,-0.645,1.438,-1.438,1.438C2.804,19.44,2.16,18.795,2.16,18zM2.16,10.8c0,-0.795,0.646,-1.44,1.439,-1.44c0.796,0,1.439,0.646,1.439,1.439L5.038,10.8c0,0.795,-0.645,1.438,-1.438,1.438C2.804,12.24,2.16,11.595,2.16,10.8z"/>
  <g >
   <circle  cx="3.6" r="2.88" stroke="#FFFFFF" cy="68.4" fill="none" stroke-width="0.72"/>
   <circle  cx="3.6" r="2.88" stroke="#FFFFFF" cy="61.2" fill="none" stroke-width="0.72"/>
   <circle  cx="3.6" r="2.88" stroke="#FFFFFF" cy="46.8" fill="none" stroke-width="0.72"/>
   <circle  cx="3.6" r="2.88" stroke="#FFFFFF" cy="90" fill="none" stroke-width="0.72"/>
   <circle  cx="46.8" r="2.88" stroke="#FFFFFF" cy="90" fill="none" stroke-width="0.72"/>
   <circle  cx="46.8" r="2.88" stroke="#FFFFFF" cy="82.8" fill="none" stroke-width="0.72"/>
   <g >
    <title >text:Arduino Pro</title>
    <g transform="matrix(1, 0, 0, 1, 14.0437, 15.8401)">
     <text  fill="#FFFFFF" font-size="3" font-family="'OCRA'">Arduino Pro</text>
    </g>
   </g>
   <g >
    <title >text:Mini</title>
    <g transform="matrix(1, 0, 0, 1, 20.9749, 12.2395)">
     <text  fill="#FFFFFF" font-size="3" font-family="'OCRA'">Mini</text>
    </g>
   </g>
   <g >
    <title >layer 21</title>
    <g >
     <title >text:Reset</title>
     <g transform="matrix(1, 0, 0, 1, 20.7922, 77.8323)">
      <text  fill="#FFFFFF" font-size="2.5" font-family="'OCRA'">Reset</text>
     </g>
    </g>
    <g >
     <title >text:9</title>
     <g transform="matrix(1, 0, 0, 1, 9.72, 91.08)">
      <g >
       <g transform="rotate(270)">
        <g >
         <g transform="matrix(1, 0, 0, 1, -0.000305176, -0.000518799)">
          <text  fill="#FFFFFF" font-size="2.5" font-family="'OCRA'">9</text>
         </g>
        </g>
       </g>
      </g>
     </g>
    </g>
    <g >
     <title >text:8</title>
     <g transform="matrix(1, 0, 0, 1, 9.72, 83.88)">
      <g >
       <g transform="rotate(270)">
        <g >
         <g transform="matrix(1, 0, 0, 1, 0.000854492, -0.000518799)">
          <text  fill="#FFFFFF" font-size="2.5" font-family="'OCRA'">8</text>
         </g>
        </g>
       </g>
      </g>
     </g>
    </g>
    <g >
     <title >text:7</title>
     <g transform="matrix(1, 0, 0, 1, 9.72, 76.32)">
      <g >
       <g transform="rotate(270)">
        <g >
         <g transform="matrix(1, 0, 0, 1, 0.000427246, -0.000518799)">
          <text  fill="#FFFFFF" font-size="2.5" font-family="'OCRA'">7</text>
         </g>
        </g>
       </g>
      </g>
     </g>
    </g>
    <g >
     <title >text:6</title>
     <g transform="matrix(1, 0, 0, 1, 9.72, 69.48)">
      <g >
       <g transform="rotate(270)">
        <g >
         <g transform="matrix(1, 0, 0, 1, 0.000274658, -0.000518799)">
          <text  fill="#FFFFFF" font-size="2.5" font-family="'OCRA'">6</text>
         </g>
        </g>
       </g>
      </g>
     </g>
    </g>
    <g >
     <title >text:5</title>
     <g transform="matrix(1, 0, 0, 1, 9.72, 62.28)">
      <g >
       <g transform="rotate(270)">
        <g >
         <g transform="matrix(1, 0, 0, 1, 0.000457764, -0.000518799)">
          <text  fill="#FFFFFF" font-size="2.5" font-family="'OCRA'">5</text>
         </g>
        </g>
       </g>
      </g>
     </g>
    </g>
    <g >
     <title >text:4</title>
     <g transform="matrix(1, 0, 0, 1, 9.72, 55.08)">
      <g >
       <g transform="rotate(270)">
        <g >
         <g transform="matrix(1, 0, 0, 1, -0.000305176, -0.000518799)">
          <text  fill="#FFFFFF" font-size="2.5" font-family="'OCRA'">4</text>
         </g>
        </g>
       </g>
      </g>
     </g>
    </g>
    <g >
     <title >text:3</title>
     <g transform="matrix(1, 0, 0, 1, 9.72, 47.88)">
      <g >
       <g transform="rotate(270)">
        <g >
         <g transform="matrix(1, 0, 0, 1, 0.000854492, -0.000518799)">
          <text  fill="#FFFFFF" font-size="2.5" font-family="'OCRA'">3</text>
         </g>
        </g>
       </g>
      </g>
     </g>
    </g>
    <g >
     <title >text:2</title>
     <g transform="matrix(1, 0, 0, 1, 9.36, 40.32)">
      <g >
       <g transform="rotate(270)">
        <g >
         <g transform="matrix(1, 0, 0, 1, 0.000427246, -0.000854492)">
          <text  fill="#FFFFFF" font-size="2.5" font-family="'OCRA'">2</text>
         </g>
        </g>
       </g>
      </g>
     </g>
    </g>
    <g >
     <title >text:GND</title>
     <g transform="matrix(1, 0, 0, 1, 9.36, 35.64)">
      <g >
       <g transform="rotate(270)">
        <g >
         <g transform="matrix(1, 0, 0, 1, 0.00012207, -0.000854492)">
          <text  fill="#FFFFFF" font-size="2.5" font-family="'OCRA'">GND</text>
         </g>
        </g>
       </g>
      </g>
     </g>
    </g>
    <g >
     <title >text:RST</title>
     <g transform="matrix(1, 0, 0, 1, 9.36, 28.08)">
      <g >
       <g transform="rotate(270)">
        <g >
         <g transform="matrix(1, 0, 0, 1, -0.000335693, -0.000854492)">
          <text  fill="#FFFFFF" font-size="2.5" font-family="'OCRA'">RST</text>
         </g>
        </g>
       </g>
      </g>
     </g>
    </g>
    <g >
     <title >text:RXI</title>
     <g transform="matrix(1, 0, 0, 1, 9.36, 20.88)">
      <g >
       <g transform="rotate(270)">
        <g >
         <g transform="matrix(1, 0, 0, 1, 0.000854492, -0.000854492)">
          <text  fill="#FFFFFF" font-size="2.5" font-family="'OCRA'">RXI</text>
         </g>
        </g>
       </g>
      </g>
     </g>
    </g>
    <g >
     <title >text:TXO</title>
     <g transform="matrix(1, 0, 0, 1, 9.36, 13.68)">
      <g >
       <g transform="rotate(270)">
        <g >
         <g transform="matrix(1, 0, 0, 1, 6.10352e-05, -0.000854492)">
          <text  fill="#FFFFFF" font-size="2.5" font-family="'OCRA'">TXO</text>
         </g>
        </g>
       </g>
      </g>
     </g>
    </g>
    <g >
     <title >text:TXO</title>
     <g transform="matrix(1, 0, 0, 1, 33.1199, 8.7483)">
      <text  fill="#FFFFFF" font-size="2.5" font-family="'OCRA'">TXO</text>
     </g>
    </g>
    <g >
     <title >text:RXI</title>
     <g transform="matrix(1, 0, 0, 1, 26.28, 8.7483)">
      <text  fill="#FFFFFF" font-size="2.5" font-family="'OCRA'">RXI</text>
     </g>
    </g>
    <g >
     <title >text:RAW</title>
     <g transform="matrix(1, 0, 0, 1, 43.56, 13.68)">
      <g >
       <g transform="rotate(270)">
        <g >
         <g transform="matrix(1, 0, 0, 1, 6.10352e-05, -0.000671387)">
          <text  fill="#FFFFFF" font-size="2.5" font-family="'OCRA'">RAW</text>
         </g>
        </g>
       </g>
      </g>
     </g>
    </g>
    <g >
     <title >text:GND</title>
     <g transform="matrix(1, 0, 0, 1, 43.56, 20.88)">
      <g >
       <g transform="rotate(270)">
        <g >
         <g transform="matrix(1, 0, 0, 1, 0.000854492, -0.000671387)">
          <text  fill="#FFFFFF" font-size="2.5" font-family="'OCRA'">GND</text>
         </g>
        </g>
       </g>
      </g>
     </g>
    </g>
    <g >
     <title >text:RST</title>
     <g transform="matrix(1, 0, 0, 1, 43.56, 28.08)">
      <g >
       <g transform="rotate(270)">
        <g >
         <g transform="matrix(1, 0, 0, 1, -0.000335693, -0.000671387)">
          <text  fill="#FFFFFF" font-size="2.5" font-family="'OCRA'">RST</text>
         </g>
        </g>
       </g>
      </g>
     </g>
    </g>
    <g >
     <title >text:VCC</title>
     <g transform="matrix(1, 0, 0, 1, 43.56, 35.28)">
      <g >
       <g transform="rotate(270)">
        <g >
         <g transform="matrix(1, 0, 0, 1, 0.000457764, -0.000671387)">
          <text  fill="#FFFFFF" font-size="2.5" font-family="'OCRA'">VCC</text>
         </g>
        </g>
       </g>
      </g>
     </g>
    </g>
    <g >
     <title >text:A3</title>
     <g transform="matrix(1, 0, 0, 1, 43.56, 41.4)">
      <g >
       <g transform="rotate(270)">
        <g >
         <g transform="matrix(1, 0, 0, 1, 0.000335693, -0.000671387)">
          <text  fill="#FFFFFF" font-size="2.5" font-family="'OCRA'">A3</text>
         </g>
        </g>
       </g>
      </g>
     </g>
    </g>
    <g >
     <title >text:A2</title>
     <g transform="matrix(1, 0, 0, 1, 43.56, 48.6)">
      <g >
       <g transform="rotate(270)">
        <g >
         <g transform="matrix(1, 0, 0, 1, 0.000152588, -0.000671387)">
          <text  fill="#FFFFFF" font-size="2.5" font-family="'OCRA'">A2</text>
         </g>
        </g>
       </g>
      </g>
     </g>
    </g>
    <g >
     <title >text:A1</title>
     <g transform="matrix(1, 0, 0, 1, 43.56, 56.16)">
      <g >
       <g transform="rotate(270)">
        <g >
         <g transform="matrix(1, 0, 0, 1, -0.000396729, -0.000671387)">
          <text  fill="#FFFFFF" font-size="2.5" font-family="'OCRA'">A1</text>
         </g>
        </g>
       </g>
      </g>
     </g>
    </g>
    <g >
     <title >text:A0</title>
     <g transform="matrix(1, 0, 0, 1, 43.56, 63.36)">
      <g >
       <g transform="rotate(270)">
        <g >
         <g transform="matrix(1, 0, 0, 1, 0.000366211, -0.000671387)">
          <text  fill="#FFFFFF" font-size="2.5" font-family="'OCRA'">A0</text>
         </g>
        </g>
       </g>
      </g>
     </g>
    </g>
    <g >
     <title >text:13</title>
     <g transform="matrix(1, 0, 0, 1, 43.56, 70.56)">
      <g >
       <g transform="rotate(270)">
        <g >
         <g transform="matrix(1, 0, 0, 1, 0.000183105, -0.000671387)">
          <text  fill="#FFFFFF" font-size="2.5" font-family="'OCRA'">13</text>
         </g>
        </g>
       </g>
      </g>
     </g>
    </g>
    <g >
     <title >text:12</title>
     <g transform="matrix(1, 0, 0, 1, 43.56, 77.76)">
      <g >
       <g transform="rotate(270)">
        <g >
         <g transform="matrix(1, 0, 0, 1, 0, -0.000671387)">
          <text  fill="#FFFFFF" font-size="2.5" font-family="'OCRA'">12</text>
         </g>
        </g>
       </g>
      </g>
     </g>
    </g>
    <g >
     <title >text:11</title>
     <g transform="matrix(1, 0, 0, 1, 43.56, 84.96)">
      <g >
       <g transform="rotate(270)">
        <g >
         <g transform="matrix(1, 0, 0, 1, 0.000762939, -0.000671387)">
          <text  fill="#FFFFFF" font-size="2.5" font-family="'OCRA'">11</text>
         </g>
        </g>
       </g>
      </g>
     </g>
    </g>
    <g >
     <title >text:10</title>
     <g transform="matrix(1, 0, 0, 1, 43.56, 92.16)">
      <g >
       <g transform="rotate(270)">
        <g >
         <g transform="matrix(1, 0, 0, 1, -0.000396729, -0.000671387)">
          <text  fill="#FFFFFF" font-size="2.5" font-family="'OCRA'">10</text>
         </g>
        </g>
       </g>
      </g>
     </g>
    </g>
    <g >
     <title >text:VCC</title>
     <g transform="matrix(1, 0, 0, 1, 18.7195, 8.7483)">
      <text  fill="#FFFFFF" font-size="2.5" font-family="'OCRA'">VCC</text>
     </g>
    </g>
    <g >
     <title >text:GND</title>
     <g transform="matrix(1, 0, 0, 1, 11.5198, 8.7483)">
      <text  fill="#FFFFFF" font-size="2.5" font-family="'OCRA'">GND</text>
     </g>
    </g>
    <g >
     <title >text:BLK</title>
     <g transform="matrix(1, 0, 0, 1, 3.6, 6.48)">
      <g >
       <g transform="rotate(270)">
        <g >
         <g transform="matrix(1, 0, 0, 1, 0.000274658, -0.000640869)">
          <text  fill="#FFFFFF" font-size="2.5" font-family="'OCRA'">BLK</text>
         </g>
        </g>
       </g>
      </g>
     </g>
    </g>
    <g >
     <title >text:GRN</title>
     <g transform="matrix(1, 0, 0, 1, 48.96, 6.48)">
      <g >
       <g transform="rotate(270)">
        <g >
         <g transform="matrix(1, 0, 0, 1, 0.000274658, -0.000305176)">
          <text  fill="#FFFFFF" font-size="2.5" font-family="'OCRA'">GRN</text>
         </g>
        </g>
       </g>
      </g>
     </g>
    </g>
    <g >
     <title >text:Released under the Creative Commons Attribution Share-Alike 3.0 License</title>
    </g>
    <g >
     <title >text:http://creativecommons.org/licenses/by-sa/3.0</title>
    </g>
    <g >
     <title >element:JP1</title>
     <g >
      <title >package:1X06</title>
     </g>
    </g>
    <g >
     <title >element:JP2</title>
     <g >
      <title >package:1X02</title>
     </g>
    </g>
    <g >
     <title >element:JP3</title>
     <g >
      <title >package:1X01</title>
     </g>
    </g>
    <g >
     <title >element:JP4</title>
     <g >
      <title >package:1X01</title>
     </g>
    </g>
    <g >
     <title >element:JP5</title>
     <g >
      <title >package:MICRO-FIDUCIAL</title>
     </g>
    </g>
    <g >
     <title >element:JP6</title>
     <g >
      <title >package:1X12</title>
     </g>
    </g>
    <g >
     <title >element:JP7</title>
     <g >
      <title >package:1X12</title>
     </g>
    </g>
    <g >
     <title >element:JP8</title>
     <g >
      <title >package:MICRO-FIDUCIAL</title>
     </g>
    </g>
    <g >
     <title >element:R1</title>
     <g >
      <title >package:0402-RES</title>
     </g>
    </g>
    <g >
     <title >element:R3</title>
     <g >
      <title >package:0402-RES</title>
     </g>
    </g>
    <g >
     <title >element:U$1</title>
     <g >
      <title >package:SFE-LOGO-FLAME</title>
      <g >
       <title >polygon</title>
       <path  stroke="#FFFFFF" fill="none" stroke-width="0.072" d="M13.068,68.421L12.931,68.4M12.931,68.4l-0.268,-0.021M12.665,68.379L12.398,68.4M12.398,68.4L12.2,68.452M12.2,68.452l-0.184,0.091M12.016,68.543l-0.161,0.126M11.855,68.669l-0.134,0.154M11.721,68.823l-0.113,0.208M11.608,69.031l-0.068,0.228M11.54,69.259l-0.02,0.235M11.52,69.494l0,4.299M11.52,73.793l1.382,-1.557M12.902,72.238l0.246,-0.226M13.148,72.012l0.287,-0.171M13.435,71.841l0.104,-0.038M13.541,71.803l0.11,-0.019M13.651,71.784L14.3,71.784M14.3,71.784l0.387,-0.035M14.685,71.749l0.374,-0.104M15.059,71.645l0.349,-0.17M15.408,71.475l0.328,-0.231M15.736,71.242l0.293,-0.275M16.029,70.967l0.25,-0.313M16.279,70.654l0.269,-0.477M16.548,70.177l0.179,-0.517M16.725,69.66l0.082,-0.541M16.807,69.119l-0.018,-0.548M16.791,68.573l-0.059,-0.294M16.732,68.279l-0.103,-0.282M16.631,67.995l-0.143,-0.266M16.488,67.731l-0.257,-0.321M16.231,67.408l-0.319,-0.263M15.912,67.147l0,0.252M15.912,67.399l-0.005,0.041M15.907,67.44l-0.017,0.039M15.89,67.479l-0.084,0.104M15.806,67.582l-0.11,0.076M15.696,67.658l-0.058,0.021M15.638,67.68l-0.162,0.018M15.476,67.698l-0.16,-0.028M15.316,67.668l-0.146,-0.075M15.171,67.593l-0.26,-0.188M14.911,67.406l-0.119,-0.104M14.792,67.303l-0.104,-0.12M14.688,67.183l-0.083,-0.135M14.605,67.048l-0.062,-0.146M14.545,66.903l-0.019,-0.093M14.526,66.81l0.004,-0.095M14.53,66.715l0.047,-0.156M14.577,66.559l0.086,-0.139M14.663,66.42l0.119,-0.11M14.782,66.31l0.144,-0.077M14.926,66.233l0.146,-0.041M15.071,66.192l0.149,-0.017M15.22,66.175l0.173,0M15.393,66.175L15.393,66.175M15.393,66.175l-0.007,-0.007M15.386,66.168l-0.123,-0.097M15.263,66.073l-0.145,-0.063M15.12,66.009l-0.101,-0.043M15.019,65.966l-0.064,-0.028M14.955,65.938l-0.249,-0.063M14.706,65.875l-0.255,-0.024M14.451,65.851l-0.247,0.02M14.204,65.869l-0.237,0.065M13.967,65.936l-0.222,0.109M13.745,66.045l-0.221,0.159M13.524,66.204l-0.197,0.187M13.327,66.391l-0.122,0.171M13.205,66.562l-0.075,0.196M13.13,66.758l-0.023,0.209M13.105,66.967l0.026,0.209M13.133,67.176l0.08,0.194M13.213,67.37l0.336,0.498M13.549,67.868l0.412,0.438M13.961,68.307l0.108,0.127M14.069,68.434l0.072,0.151M14.141,68.585l0.03,0.164M14.173,68.749l-0.014,0.167M14.159,68.916l-0.056,0.157M14.103,69.073l-0.096,0.139M14.009,69.212l-0.127,0.108M13.882,69.322l-0.159,0.087M13.721,69.406l-0.173,0.06M13.55,69.466l-0.179,0.028M13.371,69.494l-0.21,-0.012M13.161,69.484l-0.201,-0.061M12.96,69.423l-0.18,-0.108M12.78,69.315l-0.095,-0.101M12.685,69.214l-0.063,-0.123M12.622,69.091l-0.027,-0.126M12.594,68.965l0,-0.13M12.594,68.835l0.027,-0.126M12.622,68.709l0.025,-0.048M12.647,68.661l0.039,-0.038M12.686,68.623l0.237,-0.173M12.925,68.45l0.045,-0.023M12.969,68.427l0.05,-0.011M13.018,68.416l0.05,0.005M11.52,73.728l0.058,0M11.52,73.656l0.122,0M11.52,73.584l0.186,0M11.52,73.512l0.25,0M11.52,73.44l0.313,0M11.52,73.368l0.378,0M11.52,73.296l0.44,0M11.52,73.224l0.506,0M11.52,73.152l0.568,0M11.52,73.08l0.634,0M11.52,73.008l0.696,0M11.52,72.936l0.762,0M11.52,72.864l0.825,0M11.52,72.792l0.89,0M11.52,72.72l0.953,0M11.52,72.648l1.018,0M11.52,72.576l1.081,0M11.52,72.504l1.146,0M11.52,72.432l1.209,0M11.52,72.36l1.272,0M11.52,72.288l1.337,0M11.52,72.216l1.404,0M11.52,72.144l1.483,0M11.52,72.072l1.563,0M11.52,72l1.647,0M11.52,71.928l1.77,0M11.52,71.856l1.891,0M11.52,71.784L14.3,71.784M11.52,71.712l3.298,0M11.52,71.64l3.549,0M11.52,71.568l3.695,0M11.52,71.496l3.844,0M11.52,71.424l3.959,0M11.52,71.352l4.062,0M11.52,71.28l4.163,0M11.52,71.208l4.253,0M11.52,71.136l4.329,0M11.52,71.064l4.405,0M11.52,70.992l4.481,0M11.52,70.92l4.546,0M11.52,70.848l4.604,0M11.52,70.776l4.661,0M11.52,70.704l4.719,0M11.52,70.632l4.771,0M11.52,70.56l4.812,0M11.52,70.488l4.853,0M11.52,70.416l4.893,0M11.52,70.344l4.934,0M11.52,70.272l4.974,0M11.52,70.2l5.015,0M11.52,70.128l5.044,0M11.52,70.056l5.068,0M11.52,69.984l5.094,0M11.52,69.912l5.119,0M11.52,69.84l5.144,0M11.52,69.768l5.168,0M11.52,69.696l5.192,0M11.52,69.624l5.211,0M11.52,69.552l5.222,0M11.521,69.48l1.626,0M13.462,69.48l3.291,0M11.527,69.408l1.408,0M13.721,69.408l3.042,0M11.534,69.336l1.282,0M13.855,69.336l2.92,0M11.54,69.264l1.192,0M13.949,69.264l2.837,0M11.56,69.192l1.112,0M14.023,69.192l2.772,0M11.582,69.12l1.056,0M14.072,69.12l2.735,0M11.603,69.048l1.009,0M14.113,69.048l2.692,0M11.639,68.976l0.957,0M14.138,68.976l2.665,0M11.678,68.904l0.914,0M14.16,68.904l2.641,0M11.717,68.832l0.878,0M14.166,68.832l2.633,0M11.777,68.76l0.833,0M14.172,68.76l2.625,0M11.839,68.688l0.795,0M14.161,68.688l2.633,0M11.923,68.615l0.773,0M14.147,68.615l2.645,0M12.015,68.544l0.779,0M14.122,68.544l2.663,0M12.16,68.472l0.734,0M14.088,68.472l2.684,0M12.398,68.4l0.533,0M14.041,68.4l2.715,0M13.979,68.328l2.763,0M13.914,68.256l2.811,0M13.845,68.184l2.853,0M13.777,68.112l2.896,0M13.71,68.04l2.938,0M13.642,67.968l2.974,0M13.574,67.896l3.003,0M13.518,67.823l3.021,0M13.469,67.752l3.029,0M13.421,67.68l1.961,0M15.638,67.68l0.81,0M13.373,67.608l1.826,0M15.769,67.608l0.621,0M13.324,67.536l1.767,0M15.844,67.536l0.489,0M13.275,67.464l1.716,0M15.896,67.464l0.38,0M13.226,67.392l1.668,0M15.912,67.392l0.3,0M13.192,67.32l1.618,0M15.912,67.32l0.212,0M13.163,67.248l1.581,0M15.912,67.248l0.124,0M13.134,67.176l1.552,0M15.912,67.176l0.036,0M13.123,67.104l1.518,0M13.114,67.031l1.484,0M13.105,66.96l1.463,0M13.114,66.888l1.428,0M13.123,66.816l1.404,0M13.134,66.744l1.396,0M13.163,66.672l1.38,0M13.19,66.6l1.374,0M13.229,66.528l1.367,0M13.281,66.456l1.359,0M13.335,66.384l1.367,0M13.411,66.312l1.368,0M13.487,66.24l1.426,0M13.575,66.168l1.813,0M13.675,66.096l1.619,0M13.788,66.024l1.365,0M13.933,65.952l1.054,0M14.168,65.88l0.558,0" stroke-linecap="round"/>
      </g>
     </g>
    </g>
    <g >
     <title >element:U$3</title>
     <g >
      <title >package:OSHW-LOGO-S</title>
     </g>
    </g>
    <g >
     <title >element:U$11</title>
     <g >
      <title >package:SFE-NEW-WEBLOGO</title>
     </g>
    </g>
    <g >
     <title >element:U1</title>
     <g >
      <title >package:TQFP32-08</title>
      <polygon  fill="#333333" points="39.251,54,25.2,68.051,11.149,54,24.488,40.66,25.912,40.66"/>
     </g>
    </g>
   </g>
  </g>
  <circle  cx="43.2" r="2.052" stroke="#9A916C" cy="3.6" fill="none" stroke-width="1.224" id="connector14pin"/>
  <circle  cx="36" r="2.052" stroke="#9A916C" cy="3.6" fill="none" stroke-width="1.224" id="connector15pin"/>
  <circle  cx="28.8" r="2.052" stroke="#9A916C" cy="3.6" fill="none" stroke-width="1.224" id="connector16pin"/>
  <circle  cx="21.6" r="2.052" stroke="#9A916C" cy="3.6" fill="none" stroke-width="1.224" id="connector17pin"/>
  <circle  cx="14.4" r="2.052" stroke="#9A916C" cy="3.6" fill="none" stroke-width="1.224" id="connector18pin"/>
  <circle  cx="7.2" r="2.052" stroke="#9A916C" cy="3.6" fill="none" stroke-width="1.224" id="connector19pin"/>
  <circle  cx="38.52" r="2.052" stroke="#9A916C" cy="42.84" fill="none" stroke-width="1.224" id="connector20pin"/>
  <circle  cx="38.52" r="2.052" stroke="#9A916C" cy="35.64" fill="none" stroke-width="1.224" id="connector21pin"/>
  <circle  cx="46.8" r="2.052" stroke="#9A916C" cy="10.8" fill="none" stroke-width="1.224" id="connector25pin"/>
  <circle  cx="46.8" r="2.052" stroke="#9A916C" cy="18" fill="none" stroke-width="1.224" id="connector26pin"/>
  <circle  cx="46.8" r="2.052" stroke="#9A916C" cy="25.2" fill="none" stroke-width="1.224" id="connector27pin"/>
  <circle  cx="46.8" r="2.052" stroke="#9A916C" cy="32.4" fill="none" stroke-width="1.224" id="connector28pin"/>
  <circle  cx="46.8" r="2.052" stroke="#9A916C" cy="39.6" fill="none" stroke-width="1.224" id="connector29pin"/>
  <circle  cx="46.8" r="2.052" stroke="#9A916C" cy="46.8" fill="none" stroke-width="1.224" id="connector30pin"/>
  <circle  cx="46.8" r="2.052" stroke="#9A916C" cy="54" fill="none" stroke-width="1.224" id="connector31pin"/>
  <circle  cx="46.8" r="2.052" stroke="#9A916C" cy="61.2" fill="none" stroke-width="1.224" id="connector32pin"/>
  <circle  cx="46.8" r="2.052" stroke="#9A916C" cy="68.4" fill="none" stroke-width="1.224" id="connector33pin"/>
  <circle  cx="46.8" r="2.052" stroke="#9A916C" cy="75.6" fill="none" stroke-width="1.224" id="connector34pin"/>
  <circle  cx="46.8" r="2.052" stroke="#9A916C" cy="82.8" fill="none" stroke-width="1.224" id="connector35pin"/>
  <circle  cx="46.8" r="2.052" stroke="#9A916C" cy="90" fill="none" stroke-width="1.224" id="connector36pin"/>
  <circle  cx="3.6" r="2.052" stroke="#9A916C" cy="90" fill="none" stroke-width="1.224" id="connector37pin"/>
  <circle  cx="3.6" r="2.052" stroke="#9A916C" cy="82.8" fill="none" stroke-width="1.224" id="connector38pin"/>
  <circle  cx="3.6" r="2.052" stroke="#9A916C" cy="75.6" fill="none" stroke-width="1.224" id="connector39pin"/>
  <circle  cx="3.6" r="2.052" stroke="#9A916C" cy="68.4" fill="none" stroke-width="1.224" id="connector40pin"/>
  <circle  cx="3.6" r="2.052" stroke="#9A916C" cy="61.2" fill="none" stroke-width="1.224" id="connector41pin"/>
  <circle  cx="3.6" r="2.052" stroke="#9A916C" cy="54" fill="none" stroke-width="1.224" id="connector42pin"/>
  <circle  cx="3.6" r="2.052" stroke="#9A916C" cy="46.8" fill="none" stroke-width="1.224" id="connector43pin"/>
  <circle  cx="3.6" r="2.052" stroke="#9A916C" cy="39.6" fill="none" stroke-width="1.224" id="connector44pin"/>
  <circle  cx="3.6" r="2.052" stroke="#9A916C" cy="32.4" fill="none" stroke-width="1.224" id="connector45pin"/>
  <circle  cx="3.6" r="2.052" stroke="#9A916C" cy="25.2" fill="none" stroke-width="1.224" id="connector46pin"/>
  <circle  cx="3.6" r="2.052" stroke="#9A916C" cy="18" fill="none" stroke-width="1.224" id="connector47pin"/>
  <circle  cx="3.6" r="2.052" stroke="#9A916C" cy="10.8" fill="none" stroke-width="1.224" id="connector48pin"/>
 </g>
 <g transform="matrix(1, 0, 0, 1, 26.2068, 69.663)">
  <g  id="_x30_402-cap_1_">
   <g transform="matrix(-1, 0, 0, -1, 2.559, 5.67)">
    <g >
     <g transform="matrix(1, 0, 0, 1, 10.275, 76.1789)">
      <g  id="_x30_402-cap">
       <g transform="matrix(0, 1, -1, 0, 4.1105, -1.5595)">
        <g >
         <g >
          <g >
           <g transform="matrix(-2.54711e-06, -1, 1, -2.54711e-06, -84.8837, -58.6858)">
            <rect  width="2.559" fill="#534741" x="-73.064" height="5.67" y="10.264"/>
           </g>
           <g transform="matrix(-2.54711e-06, -1, 1, -2.54711e-06, -86.1523, -57.4192)">
            <rect  width="0.021" x="-71.796" opacity="0.2" enable-background="new    " height="5.67" y="11.531"/>
           </g>
           <g transform="matrix(-2.54711e-06, -1, 1, -2.54711e-06, -83.6201, -59.9514)">
            <rect  width="0.031" fill="#FFFFFF" x="-71.801" opacity="0.2" enable-background="new    " height="5.67" y="8.999"/>
           </g>
          </g>
          <g >
           <path  fill="#DCDCDC" d="M-69.771,11.819L-69.771,11.819L-69.771,11.819l-0.065,0l0,0c-0.06,0.171,-0.1,0.813,-0.1,1.002c0,0.199,0.035,1.379,0.1,1.559l0.89,0l0,-2.561L-69.771,11.819z"/>
           <path  fill="#DCDCDC" d="M-73.733,11.89l0,-0.071l-0.887,0l0,2.56l0.887,0c0.063,-0.183,0.139,-1.354,0.139,-1.558C-73.595,12.586,-73.649,12.095,-73.733,11.89z"/>
           <g transform="matrix(-2.54711e-06, -1, 1, -2.54711e-06, -88.538, -59.8147)">
            <rect  width="0.029" x="-74.191" opacity="0.15" enable-background="new    " height="0.887" y="13.918"/>
           </g>
           <g transform="matrix(-2.54711e-06, -1, 1, -2.54711e-06, -86.0117, -62.341)">
            <rect  width="0.031" fill="#FFFFFF" x="-74.192" opacity="0.5" enable-background="new    " height="0.887" y="11.392"/>
           </g>
           <path  fill="#D1C690" d="M-68.949,14.378l-0.89,0"/>
           <g transform="matrix(-2.54711e-06, -1, 1, -2.54711e-06, -83.7553, -55.0319)">
            <rect  width="0.029" x="-69.408" opacity="0.15" enable-background="new    " height="0.888" y="13.918"/>
           </g>
           <g transform="matrix(-2.54711e-06, -1, 1, -2.54711e-06, -81.228, -57.5583)">
            <rect  width="0.03" fill="#FFFFFF" x="-69.408" opacity="0.5" enable-background="new    " height="0.889" y="11.39"/>
           </g>
           <line  fill="none" x2="-74.078" y1="14.377" x1="-74.078" y2="14.377"/>
          </g>
         </g>
        </g>
       </g>
      </g>
     </g>
     <rect  width="2.542" x="0.016" opacity="0.1" enable-background="new    " height="0.116" y="5.566"/>
     <rect  width="2.542" fill="#FFFFFF" x="0.016" opacity="0.2" enable-background="new    " height="0.116" y="0"/>
    </g>
   </g>
  </g>
 </g>
 <g transform="matrix(1, 0, 0, 1, 16.2225, 34.7313)">
  <g  id="_x30_402-cap_3_">
   <g transform="matrix(1, 0, 0, 1, 10.275, 76.1789)">
    <g  id="_x30_402-cap_2_">
     <g transform="matrix(0, 1, -1, 0, 4.1105, -1.5595)">
      <g >
       <g >
        <g >
         <g transform="matrix(2.57889e-06, 1, -1, 2.57889e-06, -58.6858, 84.884)">
          <rect  width="2.56" fill="#534741" x="-73.065" height="5.67" y="10.264"/>
         </g>
         <g transform="matrix(2.57889e-06, 1, -1, 2.57889e-06, -57.4187, 86.152)">
          <rect  width="0.021" x="-71.796" opacity="0.2" enable-background="new    " height="5.671" y="11.531"/>
         </g>
         <g transform="matrix(2.57889e-06, 1, -1, 2.57889e-06, -59.9505, 83.6193)">
          <rect  width="0.03" fill="#FFFFFF" x="-71.8" opacity="0.2" enable-background="new    " height="5.67" y="8.999"/>
         </g>
        </g>
        <g >
         <path  fill="#DCDCDC" d="M-69.771,11.819L-69.771,11.819L-69.771,11.819l-0.063,0l0,0c-0.062,0.171,-0.102,0.812,-0.102,1.002c0,0.199,0.035,1.379,0.102,1.557l0.888,0l0,-2.559L-69.771,11.819z"/>
         <path  fill="#DCDCDC" d="M-73.733,11.891l0,-0.071l-0.887,0l0,2.558l0.887,0c0.063,-0.181,0.141,-1.354,0.141,-1.556C-73.595,12.586,-73.649,12.095,-73.733,11.891z"/>
         <g transform="matrix(2.57889e-06, 1, -1, 2.57889e-06, -59.8152, 88.5378)">
          <rect  width="0.029" x="-74.191" opacity="0.15" enable-background="new    " height="0.887" y="13.918"/>
         </g>
         <g transform="matrix(2.57889e-06, 1, -1, 2.57889e-06, -62.3411, 86.0109)">
          <rect  width="0.031" fill="#FFFFFF" x="-74.192" opacity="0.5" enable-background="new    " height="0.888" y="11.391"/>
         </g>
         <path  fill="#D1C690" d="M-68.949,14.378l-0.888,0"/>
         <g transform="matrix(2.57889e-06, 1, -1, 2.57889e-06, -55.0325, 83.7541)">
          <rect  width="0.03" x="-69.409" opacity="0.15" enable-background="new    " height="0.889" y="13.916"/>
         </g>
         <g transform="matrix(2.57889e-06, 1, -1, 2.57889e-06, -57.5598, 81.2258)">
          <rect  width="0.031" fill="#FFFFFF" x="-69.409" opacity="0.5" enable-background="new    " height="0.888" y="11.389"/>
         </g>
         <line  fill="none" x2="-74.077" y1="14.377" x1="-74.077" y2="14.377"/>
        </g>
       </g>
      </g>
     </g>
    </g>
   </g>
   <rect  width="2.542" x="0.015" opacity="0.1" enable-background="new    " height="0.116" y="5.566"/>
   <rect  width="2.542" fill="#FFFFFF" x="0.015" opacity="0.2" enable-background="new    " height="0.114" y="0"/>
  </g>
 </g>
 <g transform="matrix(1, 0, 0, 1, 6.84996, 22.7107)">
  <g  id="eia3216">
   <g transform="matrix(0, 1, -1, 0, 9.7915, -3.5475)">
    <g >
     <g transform="matrix(2.57889e-06, 1, -1, 2.57889e-06, 9.7922, -3.5469)">
      <rect  width="6.243" fill="#333333" x="3.548" height="13.339" y="-3.547"/>
     </g>
     <path  fill="#CCCCCC" d="M2.086,0.022L0,0.022L0,6.24l2.086,0L2.086,0.022z"/>
     <path  fill="#D1C690" d="M13.341,6.244l-2.088,0"/>
     <line  fill="none" x2="1.276" y1="6.24" x1="1.276" y2="6.24"/>
     <g transform="matrix(2.57889e-06, 1, -1, 2.57889e-06, 12.8338, -0.5073)">
      <rect  width="0.125" x="6.608" opacity="0.1" enable-background="new    " height="13.341" y="-0.507"/>
     </g>
     <g transform="matrix(2.57889e-06, 1, -1, 2.57889e-06, 6.7532, -6.5849)">
      <rect  width="0.125" fill="#FFFFFF" x="6.607" opacity="0.2" enable-background="new    " height="13.338" y="-6.585"/>
     </g>
     <g >
      <g transform="matrix(1, 0, 0, 1, 3.6915, 4.3908)">
       <text  fill="#CCCCCC" font-size="2.6726" font-family="'OCRA'">C106</text>
      </g>
     </g>
    </g>
   </g>
  </g>
 </g>
 <g transform="matrix(1, 0, 0, 1, 29.8899, 22.7107)">
  <g  id="eia3216_1_">
   <g transform="matrix(0, 1, -1, 0, 9.7915, -3.5475)">
    <g >
     <g transform="matrix(2.57889e-06, 1, -1, 2.57889e-06, 9.7922, -3.5469)">
      <rect  width="6.243" fill="#333333" x="3.548" height="13.339" y="-3.547"/>
     </g>
     <path  fill="#CCCCCC" d="M2.086,0.023L0,0.023L0,6.24l2.086,0L2.086,0.023z"/>
     <path  fill="#D1C690" d="M13.341,6.244l-2.088,0"/>
     <line  fill="none" x2="1.276" y1="6.24" x1="1.276" y2="6.24"/>
     <g transform="matrix(2.57889e-06, 1, -1, 2.57889e-06, 12.8332, -0.5069)">
      <rect  width="0.125" x="6.608" opacity="0.1" enable-background="new    " height="13.342" y="-0.508"/>
     </g>
     <g transform="matrix(2.57889e-06, 1, -1, 2.57889e-06, 6.7531, -6.585)">
      <rect  width="0.125" fill="#FFFFFF" x="6.607" opacity="0.2" enable-background="new    " height="13.338" y="-6.585"/>
     </g>
     <g >
      <g transform="matrix(1, 0, 0, 1, 3.6915, 4.3917)">
       <text  fill="#CCCCCC" font-size="2.6726" font-family="'OCRA'">C106</text>
      </g>
     </g>
    </g>
   </g>
  </g>
 </g>
 <g transform="matrix(1, 0, 0, 1, 37.1205, 82.7431)">
  <g  id="led-0603">
   <g transform="matrix(-1, 0, 0, -1, 2.535, 6.542)">
    <g >
     <g transform="matrix(1, 0, 0, 1, 21.5539, 31.3385)">
      <g  id="led-0603_1_">
       <g transform="matrix(0, -1, 1, 0, 1.7065, 4.8135)">
        <g >
         <g >
          <g >
           <g transform="matrix(2.57889e-06, 1, -1, 2.57889e-06, 11.4431, -54.295)">
            <rect  width="1.398" fill="#DCDCDC" x="32.17" height="6.422" y="-24.637"/>
           </g>
           <line  fill="none" x2="36.081" y1="-20.764" x1="29.659" y2="-20.764"/>
          </g>
          <g >
           <g transform="matrix(2.57889e-06, 1, -1, 2.57889e-06, 10.8694, -54.8677)">
            <rect  width="2.477" fill="#F2F2F2" x="31.63" height="4.505" y="-24.252"/>
           </g>
           <path  fill="#22B573" fill-opacity="0.7" d="M34.408,-20.762c0,0,-0.168,-0.467,0.052,-0.426c0.218,0.041,0.54,-0.148,0.676,0l-0.015,0.424L34.408,-20.762z"/>
           <g >
            <g >
             <g transform="matrix(2.57889e-06, 1, -1, 2.57889e-06, 10.8044, -54.9337)">
              <rect  width="0.961" fill="#FFFFFF" x="32.389" height="0.854" y="-22.491"/>
             </g>
             <g transform="matrix(2.57889e-06, 1, -1, 2.57889e-06, 11.2859, -54.4512)">
              <rect  width="0.05" fill="#B3B3B3" x="32.844" height="0.854" y="-22.01"/>
             </g>
            </g>
            <g >
             <polygon  fill="#D1C690" points="34.172,-21.186,35.135,-21.082,35.135,-21.813,34.172,-21.709"/>
             <g >
              <path  fill="#D1C690" d="M34.46,-21.385c-0.002,0,-0.005,0,-0.007,0c-0.269,-0.035,-0.449,-0.105,-0.598,-0.162c-0.209,-0.08,-0.361,-0.141,-0.635,-0.055c-0.025,0.012,-0.059,-0.011,-0.064,-0.043c-0.008,-0.035,0.009,-0.068,0.039,-0.078c0.303,-0.094,0.478,-0.025,0.695,0.059c0.148,0.061,0.318,0.123,0.572,0.156c0.03,0.004,0.054,0.033,0.049,0.068C34.511,-21.409,34.487,-21.385,34.46,-21.385z"/>
             </g>
             <polygon  fill="#D1C690" points="31.567,-22.715,30.602,-22.819,30.602,-22.088,31.567,-22.192"/>
             <g >
              <path  fill="#D1C690" d="M32.827,-21.911c-0.025,0,-0.049,-0.02,-0.055,-0.047c-0.063,-0.291,-0.949,-0.42,-1.492,-0.436c-0.033,0,-0.059,-0.027,-0.059,-0.063c0.002,-0.035,0.025,-0.063,0.059,-0.063l0.002,0c0.15,0.004,1.498,0.053,1.6,0.527c0.007,0.035,-0.012,0.068,-0.042,0.078C32.836,-21.911,32.832,-21.911,32.827,-21.911z"/>
             </g>
             <path  fill="#D1C690" d="M33.297,-21.895c0,0,-0.354,-0.002,-0.382,0.311c0.071,0,0.382,0,0.382,0L33.297,-21.895z"/>
             <path  fill="#D1C690" d="M32.863,-22.213c0,0,0.158,0.305,0.052,0.351c-0.107,0.048,-0.178,0.052,-0.24,-0.028C32.614,-21.975,32.863,-22.213,32.863,-22.213z"/>
             <path  fill="#9D956C" d="M33.222,-21.545c0.271,-0.084,0.425,-0.023,0.634,0.055c0.146,0.061,0.329,0.128,0.598,0.162l0.001,-0.057c-0.269,-0.035,-0.449,-0.105,-0.598,-0.162c-0.209,-0.08,-0.361,-0.141,-0.635,-0.055L33.222,-21.545z"/>
             <polygon  fill="#9D956C" points="31.567,-22.137,30.602,-22.034,30.602,-22.088,31.567,-22.192"/>
             <path  fill="#9D956C" d="M32.77,-21.901c-0.063,-0.291,-0.947,-0.421,-1.492,-0.436l0,-0.059c0.545,0.016,1.434,0.145,1.494,0.436L32.77,-21.901z"/>
             <path  fill="#9D956C" d="M32.914,-21.527c0.071,0,0.382,0,0.382,0l0,-0.059c0,0,-0.311,0,-0.382,0L32.914,-21.527z"/>
             <path  fill="#9D956C" d="M32.674,-21.838c0.063,0.08,0.131,0.076,0.239,0.031l0.001,-0.061c-0.107,0.051,-0.178,0.053,-0.24,-0.027L32.674,-21.838z"/>
            </g>
           </g>
           <g transform="matrix(2.57889e-06, 1, -1, 2.57889e-06, 9.6574, -56.0797)">
            <rect  width="0.053" fill="#FFFFFF" x="32.842" opacity="0.5" enable-background="new    " height="3.462" y="-24.942"/>
           </g>
           <g  opacity="0.25">
            <path  fill="#FFFFFF" d="M32.329,-22.489c0,-0.049,0.035,-0.088,0.076,-0.088l0.326,0c0.043,0,0.076,-0.039,0.076,-0.086l0,-0.032c0,0.05,-0.033,0.089,-0.076,0.089l-0.326,0c-0.043,0,-0.078,0.039,-0.078,0.086L32.329,-22.489L32.329,-22.489z"/>
            <path  fill="#FFFFFF" d="M34.319,-22.817c0,-0.051,-0.036,-0.089,-0.077,-0.089l-1.356,0c-0.043,0,-0.076,0.038,-0.076,0.089l0,-0.033c0,-0.049,0.032,-0.088,0.076,-0.088l1.356,0c0.041,0,0.077,0.039,0.077,0.088L34.319,-22.817z"/>
            <path  fill="#FFFFFF" d="M34.6,-21.344l-0.207,0c-0.041,0,-0.073,-0.039,-0.073,-0.088l0,-0.031c0,0.047,0.032,0.086,0.073,0.086l0.206,0L34.6,-21.344L34.6,-21.344z"/>
            <path  fill="#FFFFFF" d="M31.137,-22.905l1.029,0c0.041,0,0.078,0.039,0.078,0.09l0,-0.033c0,-0.049,-0.035,-0.088,-0.078,-0.088l-1.029,0L31.137,-22.905z"/>
           </g>
           <g >
            <path  fill="#F2F2F2" opacity="0.5" d="M30.618,-23.237l0,2.476l4.505,0l0,-2.476L30.618,-23.237z" enable-background="new    "/>
            <path  fill="#FFFFFF" opacity="0.55" d="M30.669,-22.584l0,-0.27c0.016,-0.152,-0.012,-0.271,0.096,-0.271c0.613,0,3.944,0,4.098,0c0.167,0,0.175,0.066,-0.014,0.066c-0.131,0,-3.133,0,-3.586,0c-0.457,0,-0.518,0.104,-0.518,0.196l0.002,0.272C30.747,-22.411,30.669,-22.411,30.669,-22.584z" enable-background="new    "/>
            <path  opacity="0.03" d="M35.073,-20.983c0,0.066,0.012,0.137,-0.099,0.137c-0.61,0,-3.942,0,-4.095,0c-0.168,0,-0.176,-0.066,0.008,-0.066c0.137,0,3.139,-0.002,3.593,-0.002C35.073,-20.914,35.073,-20.983,35.073,-20.983z" enable-background="new    "/>
           </g>
          </g>
          <g >
           <path  fill="#D1C690" d="M29.661,-20.762l0.77,0l0,-0.521c0,-0.125,0.082,-0.213,0.188,-0.268l0,-1.688L29.61,-23.239l0,2.427l0,0.049"/>
           <g transform="matrix(2.57889e-06, 1, -1, 2.57889e-06, 6.9011, -53.3253)">
            <rect  width="0.051" fill="#FFFFFF" x="30.088" opacity="0.5" enable-background="new    " height="1.006" y="-23.715"/>
           </g>
          </g>
          <g >
           <path  fill="#D1C690" d="M36.13,-20.762l0,-0.049l0,-2.427l-1.009,0l0,2.104c0.104,0.055,0.188,0.146,0.188,0.271l0,0.099l0.771,0"/>
           <g transform="matrix(2.57889e-06, 1, -1, 2.57889e-06, 12.4143, -58.8365)">
            <rect  width="0.053" fill="#FFFFFF" x="35.599" opacity="0.5" enable-background="new    " height="1.009" y="-23.715"/>
           </g>
          </g>
         </g>
        </g>
       </g>
      </g>
     </g>
    </g>
   </g>
  </g>
 </g>
 <g transform="matrix(1, 0, 0, 1, 23.5464, 29.621)">
  <g  id="led-0603_3_">
   <g transform="matrix(0, -1, 1, 0, -2.0035, 4.5385)">
    <g >
     <g transform="matrix(1, 0, 0, 1, 21.5539, 31.3385)">
      <g  id="led-0603_2_">
       <g transform="matrix(0, -1, 1, 0, 1.7065, 4.8135)">
        <g >
         <g >
          <g >
           <rect  width="6.422" fill="#DCDCDC" x="29.659" height="1.399" y="-22.126"/>
           <line  fill="none" x2="36.081" y1="-20.764" x1="29.659" y2="-20.764"/>
          </g>
          <g >
           <rect  width="4.505" fill="#F2F2F2" x="30.616" height="2.475" y="-23.237"/>
           <path  fill="#22B573" fill-opacity="0.7" d="M34.408,-20.762c0,0,-0.168,-0.467,0.052,-0.426c0.218,0.041,0.54,-0.146,0.676,0l-0.015,0.424L34.408,-20.762z"/>
           <g >
            <g >
             <rect  width="0.854" fill="#FFFFFF" x="32.441" height="0.962" y="-22.544"/>
             <rect  width="0.854" fill="#B3B3B3" x="32.442" height="0.05" y="-21.608"/>
            </g>
            <g >
             <polygon  fill="#D1C690" points="34.172,-21.186,35.135,-21.082,35.135,-21.813,34.172,-21.709"/>
             <g >
              <path  fill="#D1C690" d="M34.46,-21.385c-0.002,0,-0.005,0,-0.007,0c-0.267,-0.033,-0.449,-0.104,-0.598,-0.162c-0.209,-0.078,-0.361,-0.141,-0.633,-0.055c-0.027,0.012,-0.061,-0.01,-0.066,-0.043c-0.008,-0.035,0.009,-0.068,0.039,-0.078c0.303,-0.094,0.478,-0.023,0.697,0.061c0.146,0.059,0.316,0.123,0.57,0.154c0.03,0.004,0.056,0.033,0.05,0.068C34.511,-21.409,34.487,-21.385,34.46,-21.385z"/>
             </g>
             <polygon  fill="#D1C690" points="31.567,-22.715,30.602,-22.819,30.602,-22.088,31.567,-22.192"/>
             <g >
              <path  fill="#D1C690" d="M32.827,-21.911c-0.025,0,-0.049,-0.021,-0.055,-0.047c-0.063,-0.291,-0.949,-0.42,-1.492,-0.438c-0.033,0,-0.057,-0.027,-0.057,-0.063c0.002,-0.035,0.023,-0.063,0.057,-0.063l0.002,0c0.152,0.004,1.498,0.053,1.6,0.529c0.009,0.035,-0.012,0.066,-0.042,0.078C32.836,-21.911,32.832,-21.911,32.827,-21.911z"/>
             </g>
             <path  fill="#D1C690" d="M33.297,-21.895c0,0,-0.354,-0.002,-0.382,0.313c0.071,0,0.382,0,0.382,0L33.297,-21.895z"/>
             <path  fill="#D1C690" d="M32.863,-22.213c0,0,0.158,0.307,0.052,0.352c-0.105,0.047,-0.178,0.051,-0.24,-0.029C32.614,-21.975,32.863,-22.213,32.863,-22.213z"/>
             <path  fill="#9D956C" d="M33.222,-21.544c0.271,-0.086,0.423,-0.025,0.632,0.055c0.146,0.059,0.331,0.127,0.598,0.162l0.001,-0.059c-0.267,-0.033,-0.449,-0.104,-0.598,-0.162c-0.209,-0.078,-0.361,-0.141,-0.633,-0.055L33.222,-21.544z"/>
             <polygon  fill="#9D956C" points="31.567,-22.137,30.602,-22.034,30.602,-22.088,31.567,-22.192"/>
             <path  fill="#9D956C" d="M32.77,-21.901c-0.063,-0.291,-0.947,-0.42,-1.492,-0.434l0,-0.061c0.545,0.018,1.434,0.146,1.494,0.438L32.77,-21.901z"/>
             <path  fill="#9D956C" d="M32.914,-21.528c0.071,0,0.382,0,0.382,0l0,-0.057c0,0,-0.311,0,-0.382,0L32.914,-21.528z"/>
             <path  fill="#9D956C" d="M32.674,-21.838c0.063,0.08,0.133,0.076,0.239,0.031l0.001,-0.059c-0.105,0.049,-0.178,0.051,-0.24,-0.029L32.674,-21.838z"/>
            </g>
           </g>
           <rect  width="3.463" fill="#FFFFFF" x="31.138" opacity="0.5" enable-background="new    " height="0.051" y="-23.237"/>
           <g  opacity="0.25">
            <path  fill="#FFFFFF" d="M32.329,-22.489c0,-0.049,0.035,-0.088,0.076,-0.088l0.326,0c0.043,0,0.078,-0.039,0.078,-0.086l0,-0.033c0,0.049,-0.035,0.088,-0.078,0.088l-0.326,0c-0.043,0,-0.078,0.039,-0.078,0.086L32.329,-22.489L32.329,-22.489z"/>
            <path  fill="#FFFFFF" d="M34.319,-22.817c0,-0.049,-0.036,-0.088,-0.077,-0.088l-1.356,0c-0.043,0,-0.074,0.039,-0.074,0.088l0,-0.033c0,-0.049,0.03,-0.088,0.074,-0.088l1.356,0c0.041,0,0.077,0.039,0.077,0.088L34.319,-22.817z"/>
            <path  fill="#FFFFFF" d="M34.6,-21.344l-0.207,0c-0.041,0,-0.075,-0.039,-0.075,-0.088l0,-0.031c0,0.049,0.034,0.088,0.075,0.088l0.206,0L34.6,-21.344L34.6,-21.344z"/>
            <path  fill="#FFFFFF" d="M31.138,-22.905l1.028,0c0.041,0,0.078,0.039,0.078,0.088l0,-0.033c0,-0.049,-0.035,-0.088,-0.078,-0.088l-1.028,0L31.138,-22.905z"/>
           </g>
           <g >
            <path  fill="#F2F2F2" opacity="0.5" d="M30.618,-23.237l0,2.475l4.505,0l0,-2.475L30.618,-23.237z" enable-background="new    "/>
            <path  fill="#FFFFFF" opacity="0.55" d="M30.669,-22.584l0,-0.271c0.018,-0.152,-0.012,-0.27,0.098,-0.27c0.611,0,3.942,0,4.096,0c0.167,0,0.175,0.064,-0.012,0.064c-0.133,0,-3.135,0,-3.586,0c-0.457,0,-0.52,0.105,-0.52,0.197l0.002,0.271C30.747,-22.411,30.669,-22.411,30.669,-22.584z" enable-background="new    "/>
            <path  opacity="0.03" d="M35.073,-20.983c0,0.068,0.012,0.137,-0.097,0.137c-0.612,0,-3.944,0,-4.097,0c-0.168,0,-0.176,-0.064,0.01,-0.064c0.135,0,3.137,-0.002,3.591,-0.002C35.073,-20.914,35.073,-20.983,35.073,-20.983z" enable-background="new    "/>
           </g>
          </g>
          <g >
           <path  fill="#D1C690" d="M29.661,-20.762l0.771,0l0,-0.52c0,-0.125,0.082,-0.213,0.188,-0.27l0,-1.688l-1.01,0l0,2.426l0,0.049"/>
           <rect  width="1.006" fill="#FFFFFF" x="29.61" opacity="0.5" enable-background="new    " height="0.051" y="-23.237"/>
          </g>
          <g >
           <path  fill="#D1C690" d="M36.13,-20.762l0,-0.049l0,-2.426l-1.009,0l0,2.104c0.105,0.057,0.19,0.146,0.19,0.271l0,0.098l0.769,0"/>
           <rect  width="1.009" fill="#FFFFFF" x="35.121" opacity="0.5" enable-background="new    " height="0.051" y="-23.237"/>
          </g>
         </g>
        </g>
       </g>
      </g>
     </g>
    </g>
   </g>
  </g>
 </g>
 <g transform="matrix(1, 0, 0, 1, 11.8305, 81.8194)">
  <g  id="_x30_402-res">
   <g transform="matrix(1, 0, 0, 1, 10.275, 83.3789)">
    <g  id="_x30_402-res_1_">
     <g transform="matrix(0, 1, -1, 0, 4.1105, -1.5595)">
      <g >
       <g >
        <g >
         <g transform="matrix(2.57889e-06, 1, -1, 2.57889e-06, -65.8767, 92.0896)">
          <rect  width="2.56" fill="#333333" x="-80.263" height="5.67" y="10.271"/>
         </g>
         <g transform="matrix(2.57889e-06, 1, -1, 2.57889e-06, -64.6106, 93.3577)">
          <rect  width="0.021" x="-78.995" opacity="0.2" enable-background="new    " height="5.67" y="11.539"/>
         </g>
        </g>
        <g >
         <path  fill="#CCCCCC" d="M-76.971,11.827L-76.971,11.827L-76.971,11.827l-0.065,0l0,0c-0.061,0.173,-0.102,0.813,-0.102,1.002c0,0.199,0.034,1.382,0.102,1.559l0.888,0l0,-2.561L-76.971,11.827z"/>
         <path  fill="#CCCCCC" d="M-80.933,11.898l0,-0.071l-0.887,0l0,2.56l0.887,0c0.063,-0.183,0.117,-1.078,0.117,-1.279C-80.815,12.87,-80.849,12.103,-80.933,11.898z"/>
         <g transform="matrix(2.57889e-06, 1, -1, 2.57889e-06, -67.0066, 95.7459)">
          <rect  width="0.029" x="-81.391" opacity="0.15" enable-background="new    " height="0.888" y="13.926"/>
         </g>
         <g transform="matrix(2.57889e-06, 1, -1, 2.57889e-06, -69.5334, 93.219)">
          <rect  width="0.03" fill="#FFFFFF" x="-81.391" opacity="0.5" enable-background="new    " height="0.888" y="11.399"/>
         </g>
         <g transform="matrix(2.57889e-06, 1, -1, 2.57889e-06, -62.2239, 90.9622)">
          <rect  width="0.03" x="-76.608" opacity="0.15" enable-background="new    " height="0.888" y="13.925"/>
         </g>
         <g transform="matrix(2.57889e-06, 1, -1, 2.57889e-06, -64.7502, 88.4339)">
          <rect  width="0.03" fill="#FFFFFF" x="-76.607" opacity="0.5" enable-background="new    " height="0.888" y="11.398"/>
         </g>
         <line  fill="none" x2="-81.277" y1="14.385" x1="-81.277" y2="14.385"/>
        </g>
       </g>
      </g>
     </g>
    </g>
   </g>
   <rect  width="2.542" x="0.016" opacity="0.1" enable-background="new    " height="0.116" y="5.566"/>
   <rect  width="2.542" fill="#FFFFFF" x="0.016" opacity="0.2" enable-background="new    " height="0.116" y="0"/>
  </g>
 </g>
 <g transform="matrix(1, 0, 0, 1, 37.0185, 76.2386)">
  <g  id="_x30_402-res_3_">
   <g transform="matrix(1, 0, 0, 1, 10.275, 83.3789)">
    <g  id="_x30_402-res_2_">
     <g transform="matrix(0, 1, -1, 0, 4.1105, -1.5595)">
      <g >
       <g >
        <g >
         <g transform="matrix(2.57889e-06, 1, -1, 2.57889e-06, -65.8769, 92.0899)">
          <rect  width="2.559" fill="#333333" x="-80.263" height="5.67" y="10.271"/>
         </g>
         <g transform="matrix(2.57889e-06, 1, -1, 2.57889e-06, -64.6103, 93.3584)">
          <rect  width="0.021" x="-78.995" opacity="0.2" enable-background="new    " height="5.67" y="11.539"/>
         </g>
        </g>
        <g >
         <path  fill="#CCCCCC" d="M-76.97,11.827L-76.97,11.827L-76.97,11.827l-0.066,0l0,0c-0.06,0.171,-0.101,0.812,-0.101,1.002c0,0.199,0.034,1.38,0.101,1.557l0.889,0l0,-2.559L-76.97,11.827z"/>
         <path  fill="#CCCCCC" d="M-80.933,11.898l0,-0.071l-0.889,0l0,2.558l0.889,0c0.063,-0.181,0.117,-1.078,0.117,-1.277C-80.816,12.87,-80.849,12.103,-80.933,11.898z"/>
         <g transform="matrix(2.57889e-06, 1, -1, 2.57889e-06, -67.0063, 95.7456)">
          <rect  width="0.03" x="-81.391" opacity="0.15" enable-background="new    " height="0.887" y="13.926"/>
         </g>
         <g transform="matrix(2.57889e-06, 1, -1, 2.57889e-06, -69.5341, 93.2178)">
          <rect  width="0.029" fill="#FFFFFF" x="-81.391" opacity="0.5" enable-background="new    " height="0.889" y="11.397"/>
         </g>
         <g transform="matrix(2.57889e-06, 1, -1, 2.57889e-06, -62.2241, 90.9624)">
          <rect  width="0.029" x="-76.608" opacity="0.15" enable-background="new    " height="0.888" y="13.925"/>
         </g>
         <g transform="matrix(2.57889e-06, 1, -1, 2.57889e-06, -64.7505, 88.4341)">
          <rect  width="0.029" fill="#FFFFFF" x="-76.607" opacity="0.5" enable-background="new    " height="0.888" y="11.398"/>
         </g>
         <line  fill="none" x2="-81.277" y1="14.385" x1="-81.277" y2="14.385"/>
        </g>
       </g>
      </g>
     </g>
    </g>
   </g>
   <rect  width="2.542" x="0.016" opacity="0.1" enable-background="new    " height="0.114" y="5.566"/>
   <rect  width="2.542" fill="#FFFFFF" x="0.016" opacity="0.2" enable-background="new    " height="0.116" y="0"/>
  </g>
 </g>
 <g transform="matrix(1, 0, 0, 1, 24.0468, 15.079)">
  <g  id="_x30_402-res_5_">
   <g transform="matrix(0, 1, -1, 0, 4.1145, 1.5555)">
    <g >
     <g transform="matrix(1, 0, 0, 1, 10.275, 83.3789)">
      <g  id="_x30_402-res_4_">
       <g transform="matrix(0, 1, -1, 0, 4.1105, -1.5595)">
        <g >
         <g >
          <g >
           <rect  width="5.671" fill="#333333" x="-81.82" height="2.56" y="11.826"/>
           <rect  width="5.67" x="-81.819" opacity="0.2" enable-background="new    " height="0.021" y="14.364"/>
          </g>
          <g >
           <path  fill="#CCCCCC" d="M-76.97,11.827L-76.97,11.827L-76.97,11.827l-0.064,0l0,0c-0.062,0.171,-0.103,0.812,-0.103,1.002c0,0.199,0.035,1.38,0.103,1.557l0.888,0l0,-2.559L-76.97,11.827z"/>
           <path  fill="#CCCCCC" d="M-80.933,11.898l0,-0.069l-0.887,0l0,2.558l0.887,0c0.063,-0.181,0.117,-1.078,0.117,-1.279C-80.816,12.87,-80.849,12.103,-80.933,11.898z"/>
           <rect  width="0.887" x="-81.82" opacity="0.15" enable-background="new    " height="0.03" y="14.355"/>
           <rect  width="0.887" fill="#FFFFFF" x="-81.82" opacity="0.5" enable-background="new    " height="0.029" y="11.827"/>
           <rect  width="0.888" x="-77.037" opacity="0.15" enable-background="new    " height="0.03" y="14.354"/>
           <rect  width="0.889" fill="#FFFFFF" x="-77.037" opacity="0.5" enable-background="new    " height="0.029" y="11.826"/>
           <line  fill="none" x2="-81.277" y1="14.385" x1="-81.277" y2="14.385"/>
          </g>
         </g>
        </g>
       </g>
      </g>
     </g>
     <g transform="matrix(2.57889e-06, 1, -1, 2.57889e-06, 6.9111, 4.3368)">
      <rect  width="0.116" x="1.229" opacity="0.1" enable-background="new    " height="2.542" y="4.353"/>
     </g>
     <g transform="matrix(2.57889e-06, 1, -1, 2.57889e-06, 1.3456, -1.2286)">
      <rect  width="0.114" fill="#FFFFFF" x="1.23" opacity="0.2" enable-background="new    " height="2.542" y="-1.212"/>
     </g>
    </g>
   </g>
  </g>
 </g>
 <g transform="matrix(1, 0, 0, 1, 17.648, 78.4886)">
  <g  id="tactile_switch_smd_2_">
   <g transform="matrix(-1, 0, 0, -1, 15.104, 15.102)">
    <g >
     <g transform="matrix(1, 0, 0, 1, 17.004, 77.8536)">
      <g  id="tactile_switch_smd_1_">
       <g transform="matrix(-1, 0, 0, -1, 16.392, 16.373)">
        <g >
         <g transform="matrix(1, 0, 0, 1, 17.021, 74.628)">
          <g  id="tactile_switch_smd">
           <g transform="matrix(-1, 0, 0, -1, 16.392, 16.392)">
            <g >
             <polygon  fill="#6D6D6D" points="1.071,8.747,3.164,10.844,11.976,10.844,14.069,8.747,14.069,-0.065,11.976,-2.156,3.164,-2.156,1.071,-0.065"/>
             <rect  width="8.813" fill="#6D6D6D" x="3.164" height="15.104" y="-3.207"/>
             <rect  width="15.104" fill="#6D6D6D" x="0.018" height="8.813" y="-0.065"/>
             <polygon  fill="#7F7F7F" points="1.703,8.32,3.593,10.211,11.547,10.211,13.439,8.32,13.439,0.365,11.547,-1.525,3.593,-1.525,1.703,0.365"/>
             <polyline  stroke-miterlimit="10" stroke="#FFFFFF" fill="none" stroke-width="0.2183" points="3.802,-1.218,2.01,0.573,2.01,8.113,3.802,9.905,11.339,9.905" opacity="0.2" enable-background="new    "/>
             <polyline  stroke-miterlimit="10" stroke="#606060" fill="none" stroke-width="0.2183" points="11.341,9.905,13.133,8.114,13.133,0.574,11.341,-1.218,3.802,-1.218" opacity="0.2" enable-background="new    "/>
             <g >
              <path  fill="#BCA16A" d="M7.571,7.779c-1.894,0,-3.435,-1.541,-3.435,-3.438c0,-1.893,1.541,-3.435,3.435,-3.435s3.436,1.541,3.436,3.435C11.002,6.237,9.462,7.779,7.571,7.779z"/>
              <path  fill="#606060" d="M7.571,1.141c1.77,0,3.204,1.438,3.204,3.204c0,1.771,-1.437,3.204,-3.204,3.204c-1.77,0,-3.204,-1.435,-3.204,-3.204C4.367,2.573,5.802,1.141,7.571,1.141M7.571,0.68c-2.021,0,-3.665,1.646,-3.665,3.664c0,2.021,1.645,3.666,3.665,3.666c2.02,0,3.665,-1.645,3.665,-3.666C11.233,2.322,9.59,0.68,7.571,0.68L7.571,0.68z"/>
             </g>
             <path  stroke-miterlimit="10" stroke="#FFFFFF" fill="#BCA16A" stroke-width="0.4887" opacity="0.2" d="M9.591,6.363c-1.115,1.117,-2.929,1.117,-4.045,0c-1.115,-1.117,-1.115,-2.929,0,-4.044" enable-background="new    "/>
             <path  stroke-miterlimit="10" stroke="#606060" fill="#BCA16A" stroke-width="0.4887" opacity="0.2" d="M5.547,2.32c1.116,-1.116,2.93,-1.116,4.046,0c1.115,1.117,1.115,2.927,0,4.044" enable-background="new    "/>
            </g>
           </g>
          </g>
         </g>
        </g>
       </g>
      </g>
     </g>
    </g>
   </g>
  </g>
 </g>
 <g transform="matrix(1, 0, 0, 1, 20.1771, 20.6032)">
  <g  id="sot23-5">
   <g transform="matrix(0, 1, -1, 0, 8.26704, 0.203004)">
    <g >
     <g >
      <g transform="matrix(2.57889e-06, 1, -1, 2.57889e-06, 7.8211, -5.7603)">
       <rect  width="2.061" fill="#999999" x="5.76" height="1.457" y="0.302"/>
      </g>
      <g transform="matrix(2.57889e-06, 1, -1, 2.57889e-06, 5.0618, -3.001)">
       <rect  width="2.061" fill="#999999" x="3.001" height="1.454" y="0.303"/>
      </g>
      <g transform="matrix(2.57889e-06, 1, -1, 2.57889e-06, 2.303, -0.2413)">
       <rect  width="2.062" fill="#999999" x="0.241" height="1.455" y="0.303"/>
      </g>
      <g transform="matrix(2.57889e-06, 1, -1, 2.57889e-06, 6.8221, -6.7593)">
       <rect  width="0.063" fill="#FFFFFF" x="6.759" opacity="0.2" enable-background="new    " height="1.457" y="-0.697"/>
      </g>
      <g transform="matrix(2.57889e-06, 1, -1, 2.57889e-06, 4.0628, -4.0001)">
       <rect  width="0.063" fill="#FFFFFF" x="4" opacity="0.2" enable-background="new    " height="1.454" y="-0.696"/>
      </g>
      <g transform="matrix(2.57889e-06, 1, -1, 2.57889e-06, 1.304, -1.2403)">
       <rect  width="0.063" fill="#FFFFFF" x="1.24" opacity="0.2" enable-background="new    " height="1.455" y="-0.696"/>
      </g>
      <g transform="matrix(2.57889e-06, 1, -1, 2.57889e-06, 11.3885, 3.3266)">
       <rect  width="2.225" fill="#999999" x="2.919" height="4.299" y="5.208"/>
      </g>
      <g transform="matrix(2.57889e-06, 1, -1, 2.57889e-06, 12.4661, 4.4042)">
       <rect  width="0.065" fill="#FFFFFF" x="3.998" opacity="0.2" enable-background="new    " height="4.299" y="6.286"/>
      </g>
      <g transform="matrix(2.57889e-06, 1, -1, 2.57889e-06, 8.1858, 0.121)">
       <rect  width="4.186" fill="#303030" x="1.94" height="8.063" y="0.122"/>
      </g>
      <polygon  fill="#1F1F1F" points="8.064,6.245,0,6.245,0.302,5.943,7.76,5.943"/>
      <polygon  fill="#1F1F1F" points="8.064,2.061,0,2.061,0.302,2.365,7.76,2.365"/>
      <polygon  points="8.064,6.245,8.064,2.061,7.76,2.365,7.76,5.943"/>
      <polygon  fill="#3D3D3D" points="0,6.245,0,2.061,0.302,2.365,0.302,5.943"/>
      <circle  cx="7.154" r="0.303" cy="2.971" fill="#1F1F1F"/>
     </g>
    </g>
   </g>
  </g>
 </g>
</g>
</g></g></g><g partID='86260'><g transform='translate(125.328,0)' ><g xmlns="http://www.w3.org/2000/svg" id="breadboard">
 <path xmlns="http://www.w3.org/2000/svg" letter-spacing="normal" color-rendering="auto" d="M41.8158,4.06456,37.3516,5.7752,65.5492,79.3639,70.1558,78.785,73.4277,50.6438,143.953,23.3109,142.225,18.8532,69.012,47.2278,66.531,68.5647Z" text-decoration="none" text-indent="0" stroke-opacity="1" writing-mode="lr-tb" solid-color="#000000" font-family="'Droid Sans'" text-align="start" solid-opacity="1" font-weight="normal" stroke-miterlimit="4" stroke-dasharray="none" text-anchor="start" text-decoration-line="none" font-variant="normal" font-style="normal" font-size="medium" overflow="visible" shape-rendering="auto" text-decoration-color="#000000" isolation="auto" gorn="0.3.0.0.0.0.0.0" direction="ltr" enable-background="accumulate" stroke-linecap="butt" display="inline" fill="#333333" opacity="1" font-stretch="normal" color="#000000" line-height="normal" stroke-linejoin="miter" white-space="normal" clip-rule="nonzero" stroke-dashoffset="0" text-rendering="auto" word-spacing="normal" color-interpolation-filters="linearRGB" text-decoration-style="solid" text-transform="none" stroke-width="0.430268" stroke="none" baseline-shift="baseline" fill-opacity="1" mix-blend-mode="normal" fill-rule="evenodd" image-rendering="auto" visibility="visible" color-interpolation="sRGB" id="path4272"/>
 <path xmlns="http://www.w3.org/2000/svg" letter-spacing="normal" color-rendering="auto" d="M107.515,60.514,102.892,61.014,100.334,81.1534,13.4267,108.206,14.8474,112.771,104.69,84.8048,106.37,71.5778C108.434,77.3855,110.64,83.5838,115.003,95.8986,118.033,104.452,121.095,113.112,123.463,119.846,125.832,126.581,127.588,131.67,127.732,132.152L132.312,130.778C131.941,129.54,130.344,125.001,127.973,118.26,125.603,111.519,122.54,102.857,119.509,94.3024,113.447,77.193,107.515,60.514,107.515,60.514Z" text-decoration="none" text-indent="0" stroke-opacity="1" writing-mode="lr-tb" solid-color="#000000" font-family="'Droid Sans'" text-align="start" solid-opacity="1" font-weight="normal" stroke-miterlimit="4" stroke-dasharray="none" text-anchor="start" text-decoration-line="none" font-variant="normal" font-style="normal" font-size="medium" overflow="visible" shape-rendering="auto" text-decoration-color="#000000" isolation="auto" gorn="0.3.0.0.0.0.0.1" direction="ltr" enable-background="accumulate" stroke-linecap="butt" display="inline" fill="#333333" opacity="1" font-stretch="normal" color="#000000" line-height="normal" stroke-linejoin="miter" white-space="normal" clip-rule="nonzero" stroke-dashoffset="0" text-rendering="auto" word-spacing="normal" color-interpolation-filters="linearRGB" text-decoration-style="solid" text-transform="none" stroke-width="0.430268" stroke="none" baseline-shift="baseline" fill-opacity="1" mix-blend-mode="normal" fill-rule="evenodd" image-rendering="auto" visibility="visible" color-interpolation="sRGB" id="path4274"/>
 <path xmlns="http://www.w3.org/2000/svg" stroke-miterlimit="4" gorn="0.3.0.0.0.0.0.2" stroke="none" fill="#1c1c1c" fill-rule="nonzero" stroke-width="0.0645403" fill-opacity="1" display="inline" id="rect4257" stroke-dashoffset="0" stroke-linejoin="round" d="M18.5819,0C13.7017,0,9.77299,3.92864,9.77299,8.80898L9.77299,130.803C9.77299,135.683,13.7017,139.612,18.5819,139.612L145.39,139.612C150.27,139.612,154.199,135.683,154.199,130.803L154.199,8.80898C154.199,3.92864,150.27,0,145.39,0ZM85.037,3.2536A70.1804,66.615,0,0,1,152.122,72.1994,70.1804,66.615,0,0,1,79.9941,136.394,70.1804,66.615,0,0,1,11.8207,68.4176L11.8968,66.4077A70.1804,66.615,0,0,1,85.037,3.2536Z" opacity="1" stroke-dasharray="none" stroke-linecap="round" stroke-opacity="1"/>
 <path xmlns="http://www.w3.org/2000/svg" gorn="0.3.0.0.0.0.0.3" stroke="none" fill="#1c1c1c" fill-rule="evenodd" stroke-width="0.0215134" fill-opacity="1" display="inline" id="path4165" stroke-linejoin="miter" d="M82.1759,50.6166C82.1759,50.6166,82.8934,35.0454,81.6601,27.4052,80.5708,20.658,75.6423,7.80456,75.6423,7.80456,75.6423,7.80456,87.2418,6.35984,93.0078,6.94488,99.1896,7.57208,111.061,11.5871,111.061,11.5871,111.061,11.5871,107.006,26.7778,103.84,33.9388,100.902,40.5833,93.0078,52.8518,93.0078,52.8518Z" opacity="1" stroke-linecap="butt" stroke-opacity="1"/>
 <path xmlns="http://www.w3.org/2000/svg" gorn="0.3.0.0.0.0.0.4" stroke="none" fill="url(#radialGradient4475)" fill-rule="evenodd" stroke-width="0.0215134" fill-opacity="1" display="inline" id="path4165-2" stroke-linejoin="miter" d="M82.5782,50.1986C82.5782,50.1986,83.2957,34.6274,82.0623,26.9873,80.9731,20.2401,76.0446,7.38664,76.0446,7.38664,76.0446,7.38664,87.6441,5.94192,93.4101,6.52696,99.5919,7.15416,111.463,11.1692,111.463,11.1692,111.463,11.1692,107.408,26.3599,104.242,33.5209,101.304,40.1654,93.4101,52.4338,93.4101,52.4338Z" opacity="1" stroke-linecap="butt" stroke-opacity="1"/>
 <path xmlns="http://www.w3.org/2000/svg" gorn="0.3.0.0.0.0.0.5" stroke="none" fill="#1c1c1c" fill-rule="evenodd" stroke-width="0.0215134" fill-opacity="1" display="inline" id="path4165-3" stroke-linejoin="miter" d="M100.429,56.8926C100.429,56.8926,112.634,47.1969,117.581,41.2449,121.949,35.9886,128.394,23.8248,128.394,23.8248,128.394,23.8248,137.109,31.6158,140.458,36.3454,144.05,41.4159,148.828,53.0011,148.828,53.0011,148.828,53.0011,134.716,59.9318,127.238,62.2534,120.3,64.4078,105.865,66.5244,105.865,66.5244Z" opacity="1" stroke-linecap="butt" stroke-opacity="1"/>
 <path xmlns="http://www.w3.org/2000/svg" gorn="0.3.0.0.0.0.0.6" stroke="none" fill="#1c1c1c" fill-rule="evenodd" stroke-width="0.0215134" fill-opacity="1" display="inline" id="path4165-3-6" stroke-linejoin="miter" d="M106.88,70.9501C106.88,70.9501,121.628,75.9957,129.308,76.9493,136.091,77.7914,149.81,76.6561,149.81,76.6561,149.81,76.6561,147.951,88.1966,145.777,93.5685,143.445,99.3279,136.268,109.602,136.268,109.602,136.268,109.602,122.819,101.458,116.83,96.415,111.273,91.7354,101.703,80.724,101.703,80.724Z" opacity="1" stroke-linecap="butt" stroke-opacity="1"/>
 <path xmlns="http://www.w3.org/2000/svg" gorn="0.3.0.0.0.0.0.7" stroke="none" fill="#1c1c1c" fill-rule="evenodd" stroke-width="0.0215134" fill-opacity="1" display="inline" id="path4165-3-6-7" stroke-linejoin="miter" d="M94.9107,85.8095C94.9107,85.8095,100.065,100.52,104.064,107.146,107.596,112.997,116.971,123.077,116.971,123.077,116.971,123.077,106.752,128.752,101.186,130.365,95.2174,132.093,82.7056,132.806,82.7056,132.806,82.7056,132.806,80.7894,117.201,81.0499,109.375,81.2915,102.114,84.0284,87.7846,84.0284,87.7846Z" opacity="1" stroke-linecap="butt" stroke-opacity="1"/>
 <path xmlns="http://www.w3.org/2000/svg" gorn="0.3.0.0.0.0.0.8" stroke="none" fill="#1c1c1c" fill-rule="evenodd" stroke-width="0.0215134" fill-opacity="1" display="inline" id="path4165-3-6-7-5" stroke-linejoin="miter" d="M73.9907,85.4913C73.9907,85.4913,67.3506,99.594,65.5565,107.122,63.9721,113.771,63.5888,127.531,63.5888,127.531,63.5888,127.531,52.3234,124.412,47.2238,121.659,41.7564,118.706,32.3358,110.442,32.3358,110.442,32.3358,110.442,41.9116,97.9717,47.5843,92.5748,52.8478,87.5672,64.8467,79.2691,64.8467,79.2691Z" opacity="1" stroke-linecap="butt" stroke-opacity="1"/>
 <path xmlns="http://www.w3.org/2000/svg" gorn="0.3.0.0.0.0.0.9" stroke="none" fill="#1c1c1c" fill-rule="evenodd" stroke-width="0.0215134" fill-opacity="1" display="inline" id="path4165-3-6-7-5-3" stroke-linejoin="miter" d="M59.8391,76.0804C59.8391,76.0804,44.6884,79.7458,37.698,83.0666,31.5246,85.9991,20.5621,94.3254,20.5621,94.3254,20.5621,94.3254,15.9313,83.5927,14.8806,77.8931,13.754,71.7826,14.2891,59.262,14.2891,59.262,14.2891,59.262,30.0077,58.9073,37.7684,59.9446,44.9695,60.9072,58.956,65.0555,58.956,65.0555Z" opacity="1" stroke-linecap="butt" stroke-opacity="1"/>
 <path xmlns="http://www.w3.org/2000/svg" gorn="0.3.0.0.0.0.0.10" stroke="none" fill="#1c1c1c" fill-rule="evenodd" stroke-width="0.0215134" fill-opacity="1" display="inline" id="path4165-3-6-7-5-3-5" stroke-linejoin="miter" d="M66.0629,58.6934C66.0629,58.6934,54.7681,47.9506,48.1876,43.8775,42.3762,40.2805,29.4361,35.5841,29.4361,35.5841,29.4361,35.5841,35.9433,25.8737,40.1626,21.9004,44.6861,17.6406,55.4965,11.3013,55.4965,11.3013,55.4965,11.3013,64.3175,24.3163,67.6538,31.3997,70.7495,37.9722,74.8476,51.9734,74.8476,51.9734Z" opacity="1" stroke-linecap="butt" stroke-opacity="1"/>
 <path xmlns="http://www.w3.org/2000/svg" stroke-miterlimit="4" gorn="0.3.0.0.0.0.0.11" stroke="none" fill="#1c1c1c" fill-rule="nonzero" stroke-width="0.0656212" fill-opacity="1" display="inline" id="path4163" stroke-dashoffset="0" stroke-linejoin="round" d="M110.877,68.4728A27.0739,25.9563,0,0,1,84.5777,94.9595,27.0739,25.9563,0,0,1,56.7528,69.9462,27.0739,25.9563,0,0,1,82.6323,43.0819,27.0739,25.9563,0,0,1,110.848,67.6896" opacity="1" stroke-dasharray="none" stroke-linecap="round" stroke-opacity="1"/>
 <path xmlns="http://www.w3.org/2000/svg" gorn="0.3.0.0.0.0.0.12" stroke="none" fill="url(#radialGradient4560)" fill-rule="evenodd" stroke-width="0.0215134" fill-opacity="1" display="inline" id="path4165-3-61" stroke-linejoin="miter" d="M100.106,56.2842C100.106,56.2842,112.311,46.5885,117.258,40.6365,121.626,35.3802,128.072,23.2164,128.072,23.2164,128.072,23.2164,136.786,31.0074,140.135,35.737,143.727,40.8075,148.505,52.3927,148.505,52.3927,148.505,52.3927,134.393,59.3234,126.915,61.645,119.977,63.7994,105.543,65.916,105.543,65.916Z" opacity="1" stroke-linecap="butt" stroke-opacity="1"/>
 <path xmlns="http://www.w3.org/2000/svg" gorn="0.3.0.0.0.0.0.13" stroke="none" fill="url(#radialGradient4607)" fill-rule="evenodd" stroke-width="0.0215134" fill-opacity="1" display="inline" id="path4165-3-6-0" stroke-linejoin="miter" d="M107.835,72.1504C107.835,72.1504,122.583,77.1961,130.263,78.1497,137.046,78.9918,150.765,77.8565,150.765,77.8565,150.765,77.8565,148.906,89.3969,146.731,94.769,144.4,100.528,137.223,110.802,137.223,110.802,137.223,110.802,123.774,102.659,117.785,97.6154,112.228,92.9357,102.658,81.9244,102.658,81.9244Z" opacity="1" stroke-linecap="butt" stroke-opacity="1"/>
 <path xmlns="http://www.w3.org/2000/svg" gorn="0.3.0.0.0.0.0.14" stroke="none" fill="url(#radialGradient4630)" fill-rule="evenodd" stroke-width="0.0215134" fill-opacity="1" display="inline" id="path4165-3-6-7-2" stroke-linejoin="miter" d="M95.9148,87.7043C95.9148,87.7043,101.069,102.415,105.068,109.041,108.6,114.892,117.976,124.972,117.976,124.972,117.976,124.972,107.756,130.647,102.19,132.26,96.2215,133.988,83.7097,134.701,83.7097,134.701,83.7097,134.701,81.7935,119.096,82.054,111.27,82.2956,104.009,85.0324,89.6794,85.0324,89.6794Z" opacity="1" stroke-linecap="butt" stroke-opacity="1"/>
 <path xmlns="http://www.w3.org/2000/svg" stroke-miterlimit="4" gorn="0.3.0.0.0.0.0.15" stroke="none" fill="url(#radialGradient4746)" fill-rule="nonzero" stroke-width="0.0656212" fill-opacity="1" display="inline" id="path4163-3" stroke-dashoffset="0" stroke-linejoin="round" d="M111.199,68.0818A27.0739,25.9563,0,0,1,84.8999,94.5686,27.0739,25.9563,0,0,1,57.075,69.5553,27.0739,25.9563,0,0,1,82.9545,42.691,27.0739,25.9563,0,0,1,111.17,67.2986" opacity="1" stroke-dasharray="none" stroke-linecap="round" stroke-opacity="1"/>
 <path xmlns="http://www.w3.org/2000/svg" gorn="0.3.0.0.0.0.0.16" stroke="none" fill="url(#radialGradient4653)" fill-rule="evenodd" stroke-width="0.0215134" fill-opacity="1" display="inline" id="path4165-3-6-7-5-37" stroke-linejoin="miter" d="M73.4448,85.8362C73.4448,85.8362,66.8047,99.9389,65.0107,107.467,63.4263,114.116,63.043,127.876,63.043,127.876,63.043,127.876,51.7776,124.757,46.6779,122.004,41.2105,119.051,31.7899,110.787,31.7899,110.787,31.7899,110.787,41.3658,98.3166,47.0384,92.9198,52.3019,87.9121,64.3008,79.6141,64.3008,79.6141Z" opacity="1" stroke-linecap="butt" stroke-opacity="1"/>
 <path xmlns="http://www.w3.org/2000/svg" gorn="0.3.0.0.0.0.0.17" stroke="none" fill="url(#radialGradient4676)" fill-rule="evenodd" stroke-width="0.0215134" fill-opacity="1" display="inline" id="path4165-3-6-7-5-3-59" stroke-linejoin="miter" d="M59.338,76.599C59.338,76.599,44.1874,80.2645,37.1969,83.5851,31.0235,86.5177,20.0611,94.844,20.0611,94.844,20.0611,94.844,15.4303,84.1113,14.3795,78.4118,13.253,72.3012,13.7881,59.7806,13.7881,59.7806,13.7881,59.7806,29.5067,59.4258,37.2674,60.4632,44.4684,61.4258,58.4549,65.5741,58.4549,65.5741Z" opacity="1" stroke-linecap="butt" stroke-opacity="1"/>
 <path xmlns="http://www.w3.org/2000/svg" gorn="0.3.0.0.0.0.0.18" stroke="none" fill="url(#radialGradient4723)" fill-rule="evenodd" stroke-width="0.0215134" fill-opacity="1" display="inline" id="path4165-3-6-7-5-3-5-7" stroke-linejoin="miter" d="M65.3326,59.1116C65.3326,59.1116,54.0377,48.369,47.4573,44.2958,41.6459,40.6988,28.7058,36.0024,28.7058,36.0024,28.7058,36.0024,35.2129,26.2919,39.4322,22.3186,43.9557,18.0589,54.7662,11.7196,54.7662,11.7196,54.7662,11.7196,63.5871,24.7346,66.9234,31.818,70.0192,38.3905,74.1173,52.3918,74.1173,52.3918Z" opacity="1" stroke-linecap="butt" stroke-opacity="1"/>
 <path xmlns="http://www.w3.org/2000/svg" letter-spacing="normal" color-rendering="auto" d="M11.2073,122.328,0,122.435,0.0182075,124.348,11.2255,124.241Z" text-decoration="none" text-indent="0" stroke-opacity="1" writing-mode="lr-tb" solid-color="#000000" font-family="'Droid Sans'" text-align="start" solid-opacity="1" font-weight="normal" stroke-miterlimit="4" stroke-dasharray="none" text-anchor="start" text-decoration-line="none" font-variant="normal" font-style="normal" font-size="medium" overflow="visible" shape-rendering="auto" text-decoration-color="#000000" isolation="auto" gorn="0.3.0.0.0.0.0.20" direction="ltr" enable-background="accumulate" stroke-linecap="butt" display="inline" fill="#000000" opacity="1" font-stretch="normal" color="#000000" line-height="normal" stroke-linejoin="miter" white-space="normal" clip-rule="nonzero" stroke-dashoffset="0" text-rendering="auto" word-spacing="normal" color-interpolation-filters="linearRGB" text-decoration-style="solid" text-transform="none" stroke-width="0.172107" stroke="none" baseline-shift="baseline" fill-opacity="1" mix-blend-mode="normal" fill-rule="evenodd" image-rendering="auto" visibility="visible" color-interpolation="sRGB" id="path355"/>
 <path xmlns="http://www.w3.org/2000/svg" letter-spacing="normal" color-rendering="auto" d="M11.2324,115.078,0.0251585,115.185,0.043366,117.097,11.2506,116.99Z" text-decoration="none" text-indent="0" stroke-opacity="1" writing-mode="lr-tb" solid-color="#000000" font-family="'Droid Sans'" text-align="start" solid-opacity="1" font-weight="normal" stroke-miterlimit="4" stroke-dasharray="none" text-anchor="start" text-decoration-line="none" font-variant="normal" font-style="normal" font-size="medium" overflow="visible" shape-rendering="auto" text-decoration-color="#000000" isolation="auto" gorn="0.3.0.0.0.0.0.22" direction="ltr" enable-background="accumulate" stroke-linecap="butt" display="inline" fill="#ff0000" opacity="1" font-stretch="normal" color="#000000" line-height="normal" stroke-linejoin="miter" white-space="normal" clip-rule="nonzero" stroke-dashoffset="0" text-rendering="auto" word-spacing="normal" color-interpolation-filters="linearRGB" text-decoration-style="solid" text-transform="none" stroke-width="0.172107" stroke="none" baseline-shift="baseline" fill-opacity="1" mix-blend-mode="normal" fill-rule="evenodd" image-rendering="auto" visibility="visible" color-interpolation="sRGB" id="path4281"/>
 <path xmlns="http://www.w3.org/2000/svg" gorn="0.3.0.0.0.0.0.23" stroke="none" fill="#292929" fill-rule="evenodd" stroke-width="0.0215134" fill-opacity="1" id="path357" stroke-linejoin="miter" d="M14.8487,38.071,26.3958,20.7503,14.8487,9.68432Z" stroke-linecap="butt" stroke-opacity="1"/>
 <path xmlns="http://www.w3.org/2000/svg" gorn="0.3.0.0.0.0.0.24" stroke="none" fill="#292929" fill-rule="evenodd" stroke-width="0.0215134" fill-opacity="1" id="path4281-6" stroke-linejoin="miter" d="M49.728,3.0792,32.6339,14.9592,21.3466,3.62824Z" stroke-linecap="butt" stroke-opacity="1"/>
 <path xmlns="http://www.w3.org/2000/svg" gorn="0.3.0.0.0.0.0.25" stroke="none" fill="#292929" fill-rule="evenodd" stroke-width="0.0215134" fill-opacity="1" id="path4281-2" stroke-linejoin="miter" d="M150.887,37.765,139.34,20.4444,150.887,9.37848Z" stroke-linecap="butt" stroke-opacity="1"/>
 <path xmlns="http://www.w3.org/2000/svg" gorn="0.3.0.0.0.0.0.26" stroke="none" fill="#292929" fill-rule="evenodd" stroke-width="0.0215134" fill-opacity="1" id="path4281-6-9" stroke-linejoin="miter" d="M116.008,2.77328,133.102,14.6533,144.389,3.3224Z" stroke-linecap="butt" stroke-opacity="1"/>
 <path xmlns="http://www.w3.org/2000/svg" gorn="0.3.0.0.0.0.0.27" stroke="none" fill="#292929" fill-rule="evenodd" stroke-width="0.0215134" fill-opacity="1" id="path4281-2-1" stroke-linejoin="miter" d="M116.614,135.182,133.868,123.535,145,135.018Z" stroke-linecap="butt" stroke-opacity="1"/>
 <path xmlns="http://www.w3.org/2000/svg" gorn="0.3.0.0.0.0.0.28" stroke="none" fill="#292929" fill-rule="evenodd" stroke-width="0.0215134" fill-opacity="1" id="path4281-6-9-2" stroke-linejoin="miter" d="M151.404,100.101,139.623,117.263,151.018,128.485Z" stroke-linecap="butt" stroke-opacity="1"/>
 <path xmlns="http://www.w3.org/2000/svg" gorn="0.3.0.0.0.0.0.29" stroke="none" fill="#292929" fill-rule="evenodd" stroke-width="0.0215134" fill-opacity="1" id="path4281-2-1-7" stroke-linejoin="miter" d="M48.8426,136.682,31.5889,125.035,20.4564,136.518Z" stroke-linecap="butt" stroke-opacity="1"/>
 <path xmlns="http://www.w3.org/2000/svg" gorn="0.3.0.0.0.0.0.30" stroke="none" fill="#292929" fill-rule="evenodd" stroke-width="0.0215134" fill-opacity="1" id="path4281-6-9-2-0" stroke-linejoin="miter" d="M14.0528,101.601,25.8338,118.763,14.4379,129.985Z" stroke-linecap="butt" stroke-opacity="1"/>
 <path xmlns="http://www.w3.org/2000/svg" stroke-miterlimit="4" gorn="0.3.0.0.0.0.0.31" stroke="none" fill="#292929" fill-rule="nonzero" stroke-width="0.430268" fill-opacity="1" id="path4352" stroke-dashoffset="0" stroke-linejoin="round" d="M22.5523,130.511A2.52593,2.28536,0,0,1,20.0986,132.843,2.52593,2.28536,0,0,1,17.5026,130.641,2.52593,2.28536,0,0,1,19.9171,128.276,2.52593,2.28536,0,0,1,22.5496,130.442" opacity="1" stroke-dasharray="none" stroke-linecap="round" stroke-opacity="1"/>
 <path xmlns="http://www.w3.org/2000/svg" stroke-miterlimit="4" gorn="0.3.0.0.0.0.0.32" stroke="none" fill="#292929" fill-rule="nonzero" stroke-width="0.430268" fill-opacity="1" id="path4352-9" stroke-dashoffset="0" stroke-linejoin="round" d="M147.998,128.725A2.52593,2.28536,0,0,1,145.544,131.057,2.52593,2.28536,0,0,1,142.948,128.855,2.52593,2.28536,0,0,1,145.363,126.49,2.52593,2.28536,0,0,1,147.995,128.656" opacity="1" stroke-dasharray="none" stroke-linecap="round" stroke-opacity="1"/>
 <path xmlns="http://www.w3.org/2000/svg" stroke-miterlimit="4" gorn="0.3.0.0.0.0.0.33" stroke="none" fill="#292929" fill-rule="nonzero" stroke-width="0.430268" fill-opacity="1" id="path4352-9-3" stroke-dashoffset="0" stroke-linejoin="round" d="M147.285,8.43696A2.52593,2.28536,0,0,1,144.832,10.769,2.52593,2.28536,0,0,1,142.236,8.56672,2.52593,2.28536,0,0,1,144.65,6.20136,2.52593,2.28536,0,0,1,147.283,8.368" opacity="1" stroke-dasharray="none" stroke-linecap="round" stroke-opacity="1"/>
 <path xmlns="http://www.w3.org/2000/svg" stroke-miterlimit="4" gorn="0.3.0.0.0.0.0.34" stroke="none" fill="#292929" fill-rule="nonzero" stroke-width="0.430268" fill-opacity="1" id="path4352-9-3-6" stroke-dashoffset="0" stroke-linejoin="round" d="M22.4229,8.92112A2.52593,2.28536,0,0,1,19.9692,11.2532,2.52593,2.28536,0,0,1,17.3732,9.05088,2.52593,2.28536,0,0,1,19.7877,6.68552,2.52593,2.28536,0,0,1,22.4201,8.85216" opacity="1" stroke-dasharray="none" stroke-linecap="round" stroke-opacity="1"/>
 <path xmlns="http://www.w3.org/2000/svg" stroke-miterlimit="4" gorn="0.3.0.0.0.0.0.35" stroke="none" fill="#333333" fill-rule="nonzero" stroke-width="0.430268" fill-opacity="1" id="path4352-9-3-6-0" stroke-dashoffset="0" stroke-linejoin="round" d="M85.2134,69.5374A2.52593,2.28536,0,0,1,82.7597,71.8694,2.52593,2.28536,0,0,1,80.1637,69.667,2.52593,2.28536,0,0,1,82.5782,67.3018,2.52593,2.28536,0,0,1,85.2106,69.4684" opacity="1" stroke-dasharray="none" stroke-linecap="round" stroke-opacity="1"/>
 <path xmlns="http://www.w3.org/2000/svg" stroke-miterlimit="4" gorn="0.3.0.0.0.0.0.36" stroke="none" fill="url(#radialGradient4769)" fill-rule="nonzero" stroke-width="0.430268" fill-opacity="1" display="inline" id="path4352-9-3-6-0-6" stroke-dashoffset="0" stroke-linejoin="round" d="M85.9351,70.259A2.52593,2.28536,0,0,1,83.4814,72.5911,2.52593,2.28536,0,0,1,80.8854,70.3887,2.52593,2.28536,0,0,1,83.2999,68.0234,2.52593,2.28536,0,0,1,85.9323,70.1901" opacity="1" stroke-dasharray="none" stroke-linecap="round" stroke-opacity="1"/>
 <rect xmlns="http://www.w3.org/2000/svg" width="5.08863" ry="1.6429" id="rect4790" stroke="none" height="4.74016" y="113.704" stroke-opacity="1" gorn="0.3.0.0.0.0.0.37" fill-opacity="1" opacity="1" fill="#000000" fill-rule="nonzero" stroke-dashoffset="0" x="8.84938" stroke-linecap="round" stroke-miterlimit="4" stroke-width="0.430268" stroke-linejoin="round" stroke-dasharray="none"/>
 <rect xmlns="http://www.w3.org/2000/svg" width="5.08863" ry="1.6429" id="rect4790-1" stroke="none" height="4.74016" y="120.893" stroke-opacity="1" gorn="0.3.0.0.0.0.0.38" fill-opacity="1" opacity="1" display="inline" fill="#000000" fill-rule="nonzero" stroke-dashoffset="0" x="8.70802" stroke-linecap="round" stroke-miterlimit="4" stroke-width="0.430268" stroke-linejoin="round" stroke-dasharray="none"/>
 <path xmlns="http://www.w3.org/2000/svg" letter-spacing="normal" color-rendering="auto" d="M11.2073,107.939,0,108.046,0.0182075,109.959,11.2255,109.852Z" text-decoration="none" text-indent="0" stroke-opacity="1" writing-mode="lr-tb" solid-color="#000000" font-family="'Droid Sans'" text-align="start" solid-opacity="1" font-weight="normal" stroke-miterlimit="4" stroke-dasharray="none" text-anchor="start" text-decoration-line="none" font-variant="normal" font-style="normal" font-size="medium" overflow="visible" shape-rendering="auto" text-decoration-color="#000000" isolation="auto" gorn="0.3.0.0.0.0.0.20" direction="ltr" enable-background="accumulate" stroke-linecap="butt" display="inline" fill="#0000ff" opacity="1" font-stretch="normal" color="#000000" line-height="normal" stroke-linejoin="miter" white-space="normal" clip-rule="nonzero" stroke-dashoffset="0" text-rendering="auto" word-spacing="normal" color-interpolation-filters="linearRGB" text-decoration-style="solid" text-transform="none" stroke-width="0.172107" stroke="none" baseline-shift="baseline" fill-opacity="1" mix-blend-mode="normal" fill-rule="evenodd" image-rendering="auto" visibility="visible" color-interpolation="sRGB" id="path345"/>
 <path xmlns="http://www.w3.org/2000/svg" letter-spacing="normal" color-rendering="auto" d="M11.2324,100.678,0.0251585,100.785,0.043366,102.697,11.2506,102.59Z" text-decoration="none" text-indent="0" stroke-opacity="1" writing-mode="lr-tb" solid-color="#000000" font-family="'Droid Sans'" text-align="start" solid-opacity="1" font-weight="normal" stroke-miterlimit="4" stroke-dasharray="none" text-anchor="start" text-decoration-line="none" font-variant="normal" font-style="normal" font-size="medium" overflow="visible" shape-rendering="auto" text-decoration-color="#000000" isolation="auto" gorn="0.3.0.0.0.0.0.22" direction="ltr" enable-background="accumulate" stroke-linecap="butt" display="inline" fill="#00ff00" opacity="1" font-stretch="normal" color="#000000" line-height="normal" stroke-linejoin="miter" white-space="normal" clip-rule="nonzero" stroke-dashoffset="0" text-rendering="auto" word-spacing="normal" color-interpolation-filters="linearRGB" text-decoration-style="solid" text-transform="none" stroke-width="0.172107" stroke="none" baseline-shift="baseline" fill-opacity="1" mix-blend-mode="normal" fill-rule="evenodd" image-rendering="auto" visibility="visible" color-interpolation="sRGB" id="path349"/>
 <rect xmlns="http://www.w3.org/2000/svg" width="5.08863" ry="1.6429" id="rect351" stroke="none" height="4.74016" y="99.3036" stroke-opacity="1" gorn="0.3.0.0.0.0.0.37" fill-opacity="1" opacity="1" fill="#000000" fill-rule="nonzero" stroke-dashoffset="0" x="8.84938" stroke-linecap="round" stroke-miterlimit="4" stroke-width="0.430268" stroke-linejoin="round" stroke-dasharray="none"/>
 <rect xmlns="http://www.w3.org/2000/svg" width="5.08863" ry="1.6429" id="rect353" stroke="none" height="4.74016" y="106.504" stroke-opacity="1" gorn="0.3.0.0.0.0.0.38" fill-opacity="1" opacity="1" display="inline" fill="#000000" fill-rule="nonzero" stroke-dashoffset="0" x="8.70802" stroke-linecap="round" stroke-miterlimit="4" stroke-width="0.430268" stroke-linejoin="round" stroke-dasharray="none"/>
 <rect xmlns="http://www.w3.org/2000/svg" gorn="0.3.0.0.0.0.0.19" stroke="none" width="1.07153" fill="none" stroke-width="0" ry="0.365027" id="connector0pin" x="0.123094" height="1.62037" y="122.541"/>
 <rect xmlns="http://www.w3.org/2000/svg" gorn="0.3.0.0.0.0.0.21" stroke="none" width="1.07153" fill="none" stroke-width="0" ry="0.365027" id="connector1pin" x="0.136162" height="1.62037" y="115.308"/>
 <rect xmlns="http://www.w3.org/2000/svg" gorn="0.3.0.0.0.0.0.19" stroke="none" width="1.07153" fill="none" stroke-width="0" ry="0.365027" x="0.123094" id="connector2pin" height="1.62037" y="108.152"/>
 <rect xmlns="http://www.w3.org/2000/svg" gorn="0.3.0.0.0.0.0.21" stroke="none" width="1.07153" fill="none" stroke-width="0" ry="0.365027" x="0.136162" id="connector3pin" height="1.62037" y="100.908"/>
</g>
</g></g><g partID='94270'><line stroke-linecap='round' stroke='#000000' x1='75.5899' y1='123.298' x2='125.987' y2='123.351' stroke-width='3.2' /><line stroke-linecap='round' stroke='#404040' x1='75.5899' y1='123.298' x2='125.987' y2='123.351' stroke-width='1.6' /></g><g partID='94200'><line stroke-linecap='round' stroke='#000000' x1='75.6' y1='105.319' x2='75.5899' y2='123.298' stroke-width='3.2' /><line stroke-linecap='round' stroke='#404040' x1='75.6' y1='105.319' x2='75.5899' y2='123.298' stroke-width='1.6' /></g><g partID='94340'><line stroke-linecap='round' stroke='#d6d63a' x1='61.2' y1='105.319' x2='61.2' y2='116.103' stroke-width='3.2' /><line stroke-linecap='round' stroke='#fff800' x1='61.2' y1='105.319' x2='61.2' y2='116.103' stroke-width='1.6' /></g><g partID='94410'><line stroke-linecap='round' stroke='#d6d63a' x1='61.2' y1='116.103' x2='126' y2='116.119' stroke-width='3.2' /><line stroke-linecap='round' stroke='#fff800' x1='61.2' y1='116.103' x2='126' y2='116.119' stroke-width='1.6' /></g><g partID='94480'><line stroke-linecap='round' stroke='#00a527' x1='54' y1='62.1186' x2='54.005' y2='51.3488' stroke-width='3.2' /><line stroke-linecap='round' stroke='#25cc35' x1='54' y1='62.1186' x2='54.005' y2='51.3488' stroke-width='1.6' /></g><g partID='94620'><line stroke-linecap='round' stroke='#00a527' x1='54.005' y1='51.3488' x2='111.565' y2='51.3488' stroke-width='3.2' /><line stroke-linecap='round' stroke='#25cc35' x1='54.005' y1='51.3488' x2='111.565' y2='51.3488' stroke-width='1.6' /></g><g partID='94690'><line stroke-linecap='round' stroke='#00a527' x1='111.565' y1='51.3488' x2='111.565' y2='108.908' stroke-width='3.2' /><line stroke-linecap='round' stroke='#25cc35' x1='111.565' y1='51.3488' x2='111.565' y2='108.908' stroke-width='1.6' /></g><g partID='94550'><line stroke-linecap='round' stroke='#00a527' x1='111.565' y1='108.908' x2='125.987' y2='108.963' stroke-width='3.2' /><line stroke-linecap='round' stroke='#25cc35' x1='111.565' y1='108.908' x2='125.987' y2='108.963' stroke-width='1.6' /></g><g partID='94900'><line stroke-linecap='round' stroke='#1b5bb3' x1='118.76' y1='44.1538' x2='46.8101' y2='44.1538' stroke-width='3.2' /><line stroke-linecap='round' stroke='#418dd9' x1='118.76' y1='44.1538' x2='46.8101' y2='44.1538' stroke-width='1.6' /></g><g partID='94760'><line stroke-linecap='round' stroke='#1b5bb3' x1='126' y1='101.719' x2='118.76' y2='101.714' stroke-width='3.2' /><line stroke-linecap='round' stroke='#418dd9' x1='126' y1='101.719' x2='118.76' y2='101.714' stroke-width='1.6' /></g><g partID='94970'><line stroke-linecap='round' stroke='#1b5bb3' x1='118.76' y1='101.714' x2='118.76' y2='44.1538' stroke-width='3.2' /><line stroke-linecap='round' stroke='#418dd9' x1='118.76' y1='101.714' x2='118.76' y2='44.1538' stroke-width='1.6' /></g><g partID='94830'><line stroke-linecap='round' stroke='#1b5bb3' x1='46.8101' y1='44.1538' x2='46.8' y2='62.1186' stroke-width='3.2' /><line stroke-linecap='round' stroke='#418dd9' x1='46.8101' y1='44.1538' x2='46.8' y2='62.1186' stroke-width='1.6' /></g></svg>